<?xml version="1.0" encoding="UTF-8" standalone="no"?> <!-- Created with Vectornator for iOS (http://vectornator.io/) --><!DOCTYPE svg PUBLIC "-//W3C//DTD SVG 1.1//EN" "http://www.w3.org/Graphics/SVG/1.1/DTD/svg11.dtd">
<svg height="100%" style="fill-rule:nonzero;clip-rule:evenodd;stroke-linecap:round;stroke-linejoin:round;" xmlns:xlink="http://www.w3.org/1999/xlink" xmlns="http://www.w3.org/2000/svg" xml:space="preserve" width="100%" xmlns:vectornator="http://vectornator.io" version="1.1" viewBox="0 0 1205 1605">
<metadata>
<vectornator:setting key="PencilOnly" value="0"/>
<vectornator:setting key="OutlineMode" value="0"/>
<vectornator:setting key="IsolateActiveLayer" value="0"/>
<vectornator:setting key="CMYKEnabledKey" value="0"/>
<vectornator:setting key="Units" value="Points"/>
<vectornator:setting key="DimensionsVisible" value="1"/>
<vectornator:setting key="SnapToGrid" value="0"/>
<vectornator:setting key="DynamicGuides" value="0"/>
<vectornator:setting key="RulersVisible" value="1"/>
<vectornator:setting key="DisplayWhiteBackground" value="0"/>
<vectornator:setting key="doHistoryDisabled" value="0"/>
<vectornator:setting key="SnapToEdges" value="0"/>
<vectornator:setting key="SnapToPoints" value="0"/>
<vectornator:setting key="GuidesVisible" value="1"/>
<vectornator:setting key="SnapToGuides" value="1"/>
<vectornator:setting key="TimeLapseWatermarkDisabled" value="0"/>
</metadata>
<defs/>
<g id="Layer 1" vectornator:layerName="Layer 1">
<path d="M712.244+864.758L702.244+847.758L711.244+832.758L728.244+827.758L741.244+857.758L712.244+864.758Z" opacity="1" fill="#8e7051"/>
<path d="M683.244+1486.76L683.244+1485.76L683.244+1462.76L687.244+1457.76L712.244+1457.76L720.244+1479.76L683.244+1486.76Z" opacity="1" fill="#7d5d2f"/>
<path d="M735.244+1054.76L734.244+1032.76L746.244+1028.76L777.244+1052.76L758.244+1062.76L735.244+1054.76Z" opacity="1" fill="#8d7256"/>
<path d="M440.244+1502.76L440.244+1453.76L465.244+1451.76L473.244+1457.76L473.244+1460.76L471.244+1471.76L440.244+1502.76Z" opacity="1" fill="#8a755b"/>
<path d="M702.244+1140.76L688.244+1140.76L684.244+1131.76L678.244+1115.76L680.244+1108.76L733.244+1116.76L702.244+1140.76Z" opacity="1" fill="#816448"/>
<path d="M359.244+797.758L346.244+786.758L346.244+782.758L425.244+754.758L447.244+800.758L359.244+797.758Z" opacity="1" fill="#442a18"/>
<path d="M344.244+955.758L348.244+923.758L398.244+922.758L415.244+949.758L396.244+974.758L393.244+975.758L344.244+955.758Z" opacity="1" fill="#271608"/>
<path d="M710.244+1214.76L715.244+1179.76L727.244+1180.76L734.244+1187.76L734.244+1208.76L724.244+1228.76L710.244+1214.76Z" opacity="1" fill="#7d6347"/>
<path d="M503.244+1073.76L539.244+1077.76L601.244+1101.76L600.244+1121.76L591.244+1140.76L591.244+1141.76L587.244+1141.76L503.244+1073.76Z" opacity="1" fill="#45250b"/>
<path d="M734.244+1208.76L734.244+1187.76L759.244+1173.76L757.244+1201.76L756.244+1202.76L734.244+1208.76Z" opacity="1" fill="#57422d"/>
<path d="M539.244+1077.76L557.244+1070.76L607.244+1076.76L601.244+1101.76L539.244+1077.76Z" opacity="1" fill="#7f5d3a"/>
<path d="M593.244+1417.76L589.244+1418.76L587.244+1398.76L590.244+1384.76L593.244+1383.76L618.244+1385.76L626.244+1390.76L626.244+1398.76L593.244+1417.76Z" opacity="1" fill="#402915"/>
<path d="M755.244+1146.76L735.244+1115.76L735.244+1113.76L766.244+1113.76L779.244+1124.76L769.244+1151.76L755.244+1146.76Z" opacity="1" fill="#a48d71"/>
<path d="M461.244+964.758L437.244+949.758L466.244+903.758L490.244+912.758L517.244+943.758L518.244+949.758L461.244+964.758Z" opacity="1" fill="#53351b"/>
<path d="M406.244+576.758L395.244+575.758L390.244+553.758L417.244+524.758L434.244+525.758L467.244+561.758L469.244+565.758L406.244+576.758Z" opacity="1" fill="#4b3321"/>
<path d="M490.244+912.758L466.244+903.758L468.244+896.758L481.244+886.758L519.244+889.758L521.244+905.758L521.244+906.758L490.244+912.758Z" opacity="1" fill="#462f1c"/>
<path d="M440.244+1453.76L419.244+1448.76L415.244+1444.76L446.244+1401.76L474.244+1410.76L475.244+1413.76L465.244+1451.76L440.244+1453.76Z" opacity="1" fill="#281a0d"/>
<path d="M446.244+1401.76L434.244+1386.76L478.244+1374.76L474.244+1410.76L446.244+1401.76Z" opacity="1" fill="#140a05"/>
<path d="M450.244+475.758L500.244+459.758L521.244+480.758L526.244+489.758L456.244+514.758L450.244+475.758Z" opacity="1" fill="#341f11"/>
<path d="M549.244+502.758L528.244+491.758L526.244+489.758L521.244+480.758L548.244+400.758L569.244+392.758L583.244+390.758L586.244+398.758L607.244+450.758L549.244+502.758Z" opacity="1" fill="#523b28"/>
<path d="M348.244+923.758L324.244+919.758L326.244+913.758L343.244+881.758L392.244+885.758L398.244+922.758L348.244+923.758Z" opacity="1" fill="#231208"/>
<path d="M449.244+1255.76L451.244+1241.76L478.244+1221.76L505.244+1239.76L509.244+1261.76L507.244+1282.76L488.244+1290.76L477.244+1285.76L449.244+1255.76Z" opacity="1" fill="#21150b"/>
<path d="M346.244+782.758L343.244+772.758L342.244+766.758L347.244+756.758L408.244+729.758L432.244+727.758L426.244+752.758L425.244+754.758L346.244+782.758Z" opacity="1" fill="#69513b"/>
<path d="M437.244+949.758L415.244+949.758L398.244+922.758L392.244+885.758L399.244+861.758L433.244+852.758L468.244+896.758L466.244+903.758L437.244+949.758Z" opacity="1" fill="#3a2516"/>
<path d="M704.244+981.758L703.244+971.758L704.244+956.758L709.244+953.758L742.244+953.758L737.244+965.758L704.244+981.758Z" opacity="1" fill="#a18d74"/>
<path d="M443.244+756.758L426.244+752.758L432.244+727.758L438.244+716.758L461.244+705.758L468.244+744.758L443.244+756.758Z" opacity="1" fill="#331f10"/>
<path d="M395.244+648.758L411.244+605.758L418.244+611.758L443.244+651.758L395.244+648.758Z" opacity="1" fill="#28150b"/>
<path d="M771.244+1288.76L756.244+1280.76L760.244+1264.76L778.244+1259.76L794.244+1270.76L771.244+1288.76Z" opacity="1" fill="#b6a48b"/>
<path d="M608.244+1074.76L611.244+1060.76L685.244+1065.76L691.244+1074.76L681.244+1105.76L608.244+1074.76Z" opacity="1" fill="#765b40"/>
<path d="M415.244+1444.76L400.244+1389.76L412.244+1377.76L434.244+1386.76L446.244+1401.76L415.244+1444.76Z" opacity="1" fill="#190d04"/>
<path d="M367.244+1448.76L337.244+1428.76L381.244+1387.76L400.244+1389.76L415.244+1444.76L367.244+1448.76Z" opacity="1" fill="#312212"/>
<path d="M444.244+651.758L443.244+651.758L418.244+611.758L481.244+589.758L486.244+592.758L486.244+606.758L485.244+625.758L479.244+642.758L463.244+658.758L444.244+651.758Z" opacity="1" fill="#382618"/>
<path d="M611.244+1060.76L601.244+1027.76L661.244+1027.76L687.244+1053.76L685.244+1065.76L611.244+1060.76Z" opacity="1" fill="#573c21"/>
<path d="M381.244+1387.76L345.244+1344.76L350.244+1319.76L404.244+1314.76L405.244+1315.76L416.244+1366.76L412.244+1377.76L400.244+1389.76L381.244+1387.76Z" opacity="1" fill="#281809"/>
<path d="M346.244+1505.76L344.244+1504.76L314.244+1450.76L334.244+1428.76L337.244+1428.76L367.244+1448.76L366.244+1463.76L360.244+1487.76L346.244+1505.76Z" opacity="1" fill="#251709"/>
<path d="M536.244+827.758L539.244+814.758L541.244+807.758L612.244+810.758L613.244+817.758L609.244+824.758L584.244+835.758L581.244+836.758L536.244+827.758Z" opacity="1" fill="#4f311f"/>
<path d="M680.244+1324.76L658.244+1303.76L661.244+1285.76L663.244+1283.76L680.244+1284.76L692.244+1310.76L680.244+1324.76Z" opacity="1" fill="#2f1908"/>
<path d="M348.244+1182.76L326.244+1124.76L336.244+1112.76L381.244+1111.76L433.244+1158.76L430.244+1172.76L399.244+1188.76L348.244+1182.76Z" opacity="1" fill="#2d1d0e"/>
<path d="M433.244+852.758L455.244+830.758L487.244+846.758L481.244+886.758L468.244+896.758L433.244+852.758Z" opacity="1" fill="#2a140a"/>
<path d="M418.244+611.758L411.244+605.758L394.244+587.758L395.244+575.758L406.244+576.758L479.244+587.758L481.244+589.758L418.244+611.758Z" opacity="1" fill="#4e3b2c"/>
<path d="M434.244+1386.76L412.244+1377.76L416.244+1366.76L462.244+1351.76L479.244+1368.76L478.244+1373.76L478.244+1374.76L434.244+1386.76Z" opacity="1" fill="#5d4a35"/>
<path d="M588.244+586.758L573.244+571.758L551.244+530.758L553.244+521.758L599.244+558.758L618.244+579.758L611.244+591.758L608.244+594.758L588.244+586.758Z" opacity="1" fill="#583c24"/>
<path d="M502.244+652.758L488.244+645.758L535.244+637.758L536.244+644.758L535.244+645.758L532.244+649.758L502.244+652.758Z" opacity="1" fill="#594027"/>
<path d="M343.244+881.758L339.244+877.758L329.244+831.758L344.244+787.758L346.244+786.758L359.244+797.758L399.244+861.758L392.244+885.758L343.244+881.758Z" opacity="1" fill="#2d1a0e"/>
<path d="M528.244+351.758L557.244+314.758L571.244+306.758L589.244+317.758L594.244+323.758L597.244+335.758L595.244+366.758L583.244+390.758L569.244+392.758L528.244+351.758Z" opacity="1" fill="#412a17"/>
<path d="M386.244+652.758L369.244+612.758L394.244+587.758L411.244+605.758L395.244+648.758L386.244+652.758Z" opacity="1" fill="#634b36"/>
<path d="M381.244+1111.76L336.244+1112.76L352.244+1064.76L420.244+1052.76L467.244+1078.76L466.244+1080.76L464.244+1084.76L381.244+1111.76Z" opacity="1" fill="#3a2919"/>
<path d="M563.244+1326.76L556.244+1313.76L598.244+1292.76L598.244+1314.76L585.244+1324.76L563.244+1326.76Z" opacity="1" fill="#a58b68"/>
<path d="M350.244+1319.76L338.244+1303.76L373.244+1259.76L401.244+1260.76L404.244+1314.76L350.244+1319.76Z" opacity="1" fill="#392411"/>
<path d="M374.244+700.758L372.244+687.758L378.244+679.758L411.244+673.758L423.244+709.758L374.244+700.758Z" opacity="1" fill="#442c19"/>
<path d="M519.244+1184.76L519.244+1178.76L519.244+1172.76L587.244+1150.76L537.244+1203.76L519.244+1184.76Z" opacity="1" fill="#39200c"/>
<path d="M602.244+1275.76L597.244+1260.76L597.244+1253.76L601.244+1235.76L604.244+1232.76L639.244+1231.76L663.244+1244.76L663.244+1283.76L661.244+1285.76L602.244+1275.76Z" opacity="1" fill="#331f0c"/>
<path d="M549.244+1401.76L564.244+1394.76L587.244+1398.76L589.244+1418.76L585.244+1427.76L549.244+1401.76Z" opacity="1" fill="#a18761"/>
<path d="M462.244+704.758L466.244+686.758L541.244+693.758L548.244+697.758L532.244+740.758L530.244+744.758L462.244+704.758Z" opacity="1" fill="#2a1207"/>
<path d="M654.244+1450.76L644.244+1450.76L642.244+1429.76L643.244+1427.76L680.244+1424.76L682.244+1433.76L668.244+1447.76L654.244+1450.76Z" opacity="1" fill="#3c2211"/>
<path d="M645.244+1149.76L687.244+1144.76L682.244+1165.76L681.244+1169.76L671.244+1168.76L645.244+1149.76Z" opacity="1" fill="#533924"/>
<path d="M406.244+1515.76L404.244+1486.76L419.244+1448.76L440.244+1453.76L440.244+1502.76L440.244+1503.76L406.244+1515.76Z" opacity="1" fill="#8c7457"/>
<path d="M706.244+772.758L701.244+763.758L708.244+734.758L739.244+772.758L706.244+772.758Z" opacity="1" fill="#b7a48f"/>
<path d="M525.244+1297.76L507.244+1282.76L509.244+1261.76L537.244+1255.76L578.244+1266.76L525.244+1297.76Z" opacity="1" fill="#1b0f07"/>
<path d="M540.244+784.758L539.244+773.758L591.244+768.758L606.244+784.758L540.244+784.758Z" opacity="1" fill="#3d2013"/>
<path d="M581.244+898.758L575.244+889.758L583.244+860.758L605.244+871.758L604.244+875.758L594.244+906.758L593.244+909.758L581.244+898.758Z" opacity="1" fill="#583c29"/>
<path d="M319.244+878.758L311.244+849.758L329.244+831.758L339.244+877.758L319.244+878.758Z" opacity="1" fill="#4f3c28"/>
<path d="M473.244+1457.76L465.244+1451.76L475.244+1413.76L510.244+1411.76L524.244+1413.76L530.244+1430.76L509.244+1463.76L473.244+1457.76Z" opacity="1" fill="#201106"/>
<path d="M681.244+819.758L679.244+813.758L719.244+806.758L734.244+810.758L728.244+827.758L711.244+832.758L681.244+819.758Z" opacity="1" fill="#6b4d2f"/>
<path d="M434.244+525.758L417.244+524.758L407.244+481.758L409.244+480.758L444.244+475.758L450.244+475.758L456.244+514.758L434.244+525.758Z" opacity="1" fill="#4e3928"/>
<path d="M539.244+1077.76L503.244+1073.76L483.244+1064.76L491.244+1048.76L499.244+1044.76L547.244+1029.76L557.244+1070.76L539.244+1077.76Z" opacity="1" fill="#2d190b"/>
<path d="M455.244+421.758L445.244+406.758L457.244+372.758L497.244+375.758L502.244+385.758L496.244+452.758L490.244+450.758L455.244+421.758Z" opacity="1" fill="#2e1d10"/>
<path d="M563.244+508.758L551.244+506.758L549.244+502.758L607.244+450.758L615.244+450.758L621.244+452.758L637.244+514.758L563.244+508.758Z" opacity="1" fill="#654d36"/>
<path d="M373.244+1259.76L349.244+1219.76L342.244+1191.76L348.244+1182.76L399.244+1188.76L411.244+1230.76L405.244+1255.76L401.244+1260.76L373.244+1259.76Z" opacity="1" fill="#342314"/>
<path d="M381.244+1111.76L464.244+1084.76L433.244+1158.76L381.244+1111.76Z" opacity="1" fill="#2d1c0d"/>
<path d="M612.244+909.758L647.244+862.758L651.244+862.758L653.244+863.758L661.244+878.758L665.244+891.758L644.244+899.758L612.244+909.758Z" opacity="1" fill="#c3ab91"/>
<path d="M708.244+777.758L706.244+775.758L706.244+772.758L739.244+772.758L744.244+775.758L738.244+796.758L708.244+777.758Z" opacity="1" fill="#82674d"/>
<path d="M734.244+1187.76L727.244+1180.76L732.244+1155.76L755.244+1146.76L769.244+1151.76L774.244+1157.76L759.244+1173.76L734.244+1187.76Z" opacity="1" fill="#c5b198"/>
<path d="M758.244+1092.76L750.244+1089.76L758.244+1062.76L777.244+1052.76L780.244+1070.76L758.244+1092.76Z" opacity="1" fill="#f2e5d0"/>
<path d="M575.244+653.758L563.244+624.758L588.244+618.758L607.244+664.758L589.244+678.758L575.244+653.758Z" opacity="1" fill="#624a36"/>
<path d="M492.244+312.758L489.244+311.758L494.244+291.758L503.244+272.758L567.244+292.758L571.244+306.758L557.244+314.758L492.244+312.758Z" opacity="1" fill="#533c22"/>
<path d="M649.244+754.758L650.244+739.758L652.244+735.758L656.244+734.758L683.244+738.758L666.244+764.758L649.244+754.758Z" opacity="1" fill="#3e2213"/>
<path d="M659.244+1002.76L658.244+998.758L658.244+984.758L663.244+981.758L687.244+988.758L659.244+1002.76Z" opacity="1" fill="#321a0a"/>
<path d="M729.244+1483.76L720.244+1479.76L712.244+1457.76L711.244+1441.76L738.244+1444.76L729.244+1483.76Z" opacity="1" fill="#8a693c"/>
<path d="M735.244+1099.76L706.244+1076.76L735.244+1054.76L758.244+1062.76L750.244+1089.76L735.244+1099.76Z" opacity="1" fill="#bea78b"/>
<path d="M593.244+1383.76L590.244+1384.76L585.244+1373.76L580.244+1358.76L594.244+1347.76L607.244+1340.76L615.244+1341.76L632.244+1346.76L635.244+1352.76L593.244+1383.76Z" opacity="1" fill="#2f1d0f"/>
<path d="M456.244+818.758L455.244+804.758L466.244+795.758L468.244+796.758L512.244+818.758L456.244+818.758Z" opacity="1" fill="#361d11"/>
<path d="M521.244+480.758L500.244+459.758L496.244+452.758L502.244+385.758L548.244+400.758L521.244+480.758Z" opacity="1" fill="#331d0e"/>
<path d="M522.244+951.758L518.244+949.758L517.244+943.758L521.244+906.758L521.244+905.758L537.244+909.758L565.244+950.758L522.244+951.758Z" opacity="1" fill="#634121"/>
<path d="M680.244+1108.76L681.244+1105.76L691.244+1074.76L706.244+1076.76L735.244+1099.76L735.244+1113.76L735.244+1115.76L733.244+1116.76L680.244+1108.76Z" opacity="1" fill="#5e442d"/>
<path d="M557.244+1070.76L547.244+1029.76L577.244+1018.76L593.244+1015.76L599.244+1024.76L601.244+1027.76L611.244+1060.76L608.244+1074.76L607.244+1076.76L557.244+1070.76Z" opacity="1" fill="#342011"/>
<path d="M469.244+1188.76L465.244+1191.76L430.244+1172.76L433.244+1158.76L464.244+1084.76L466.244+1080.76L506.244+1136.76L491.244+1164.76L469.244+1188.76Z" opacity="1" fill="#201308"/>
<path d="M684.244+1179.76L681.244+1169.76L682.244+1165.76L715.244+1165.76L713.244+1179.76L684.244+1179.76Z" opacity="1" fill="#8d7256"/>
<path d="M617.244+739.758L628.244+727.758L650.244+732.758L652.244+735.758L650.244+739.758L617.244+739.758Z" opacity="1" fill="#bca38f"/>
<path d="M487.244+846.758L455.244+830.758L456.244+818.758L512.244+818.758L536.244+828.758L533.244+835.758L532.244+838.758L487.244+846.758Z" opacity="1" fill="#7c5d45"/>
<path d="M617.244+819.758L613.244+817.758L612.244+810.758L616.244+792.758L618.244+791.758L668.244+795.758L671.244+800.758L672.244+803.758L658.244+815.758L617.244+819.758Z" opacity="1" fill="#bea994"/>
<path d="M585.244+1324.76L598.244+1314.76L607.244+1340.76L594.244+1347.76L585.244+1324.76Z" opacity="1" fill="#361c0d"/>
<path d="M762.244+1424.76L754.244+1389.76L760.244+1390.76L818.244+1428.76L818.244+1437.76L815.244+1438.76L762.244+1424.76Z" opacity="1" fill="#7c6140"/>
<path d="M440.244+1503.76L440.244+1502.76L471.244+1471.76L465.244+1506.76L461.244+1512.76L440.244+1503.76Z" opacity="1" fill="#4b341e"/>
<path d="M582.244+1441.76L581.244+1438.76L585.244+1427.76L589.244+1418.76L593.244+1417.76L606.244+1419.76L642.244+1429.76L644.244+1450.76L629.244+1466.76L582.244+1441.76Z" opacity="1" fill="#391f10"/>
<path d="M768.244+1456.76L759.244+1444.76L762.244+1424.76L815.244+1438.76L768.244+1456.76Z" opacity="1" fill="#a68961"/>
<path d="M444.244+475.758L409.244+480.758L437.244+452.758L443.244+453.758L447.244+465.758L444.244+475.758Z" opacity="1" fill="#aca092"/>
<path d="M411.244+1230.76L399.244+1188.76L430.244+1172.76L465.244+1191.76L478.244+1221.76L451.244+1241.76L411.244+1230.76Z" opacity="1" fill="#201307"/>
<path d="M553.244+519.758L551.244+506.758L563.244+508.758L644.244+535.758L644.244+546.758L644.244+550.758L553.244+519.758Z" opacity="1" fill="#b79e83"/>
<path d="M650.244+1194.76L638.244+1174.76L671.244+1168.76L681.244+1169.76L684.244+1179.76L682.244+1190.76L650.244+1194.76Z" opacity="1" fill="#9c8265"/>
<path d="M466.244+686.758L463.244+658.758L479.244+642.758L488.244+645.758L502.244+652.758L530.244+675.758L541.244+693.758L466.244+686.758Z" opacity="1" fill="#351f0e"/>
<path d="M411.244+673.758L444.244+651.758L463.244+658.758L466.244+686.758L462.244+704.758L461.244+705.758L438.244+716.758L423.244+709.758L411.244+673.758Z" opacity="1" fill="#291609"/>
<path d="M706.244+1076.76L691.244+1074.76L685.244+1065.76L687.244+1053.76L704.244+1011.76L734.244+1032.76L735.244+1054.76L706.244+1076.76Z" opacity="1" fill="#72573c"/>
<path d="M663.244+1244.76L639.244+1231.76L645.244+1215.76L681.244+1199.76L669.244+1241.76L663.244+1244.76Z" opacity="1" fill="#725c43"/>
<path d="M637.244+1146.76L591.244+1140.76L600.244+1121.76L678.244+1115.76L684.244+1131.76L637.244+1146.76Z" opacity="1" fill="#36200e"/>
<path d="M600.244+1121.76L601.244+1101.76L607.244+1076.76L608.244+1074.76L681.244+1105.76L680.244+1108.76L678.244+1115.76L600.244+1121.76Z" opacity="1" fill="#4f3015"/>
<path d="M405.244+1255.76L411.244+1230.76L451.244+1241.76L449.244+1255.76L434.244+1267.76L405.244+1255.76Z" opacity="1" fill="#3d2d1f"/>
<path d="M544.244+912.758L538.244+908.758L563.244+899.758L581.244+898.758L593.244+909.758L594.244+912.758L544.244+912.758Z" opacity="1" fill="#c7ad8e"/>
<path d="M525.244+979.758L522.244+951.758L565.244+950.758L592.244+952.758L596.244+999.758L593.244+1015.76L577.244+1018.76L525.244+979.758Z" opacity="1" fill="#391d0b"/>
<path d="M634.244+1197.76L626.244+1169.76L638.244+1174.76L650.244+1194.76L647.244+1201.76L634.244+1197.76Z" opacity="1" fill="#7d634a"/>
<path d="M633.244+1499.76L629.244+1466.76L644.244+1450.76L654.244+1450.76L683.244+1485.76L683.244+1486.76L669.244+1501.76L633.244+1499.76Z" opacity="1" fill="#866633"/>
<path d="M544.244+912.758L594.244+912.758L595.244+916.758L594.244+937.758L593.244+944.758L544.244+912.758Z" opacity="1" fill="#5a3922"/>
<path d="M416.244+1366.76L405.244+1315.76L412.244+1313.76L460.244+1323.76L462.244+1351.76L416.244+1366.76Z" opacity="1" fill="#160902"/>
<path d="M719.244+910.758L686.244+901.758L700.244+886.758L712.244+887.758L740.244+889.758L742.244+908.758L719.244+910.758Z" opacity="1" fill="#987451"/>
<path d="M406.244+576.758L469.244+565.758L479.244+587.758L406.244+576.758Z" opacity="1" fill="#261509"/>
<path d="M670.244+778.758L670.244+777.758L666.244+764.758L683.244+738.758L699.244+730.758L707.244+728.758L708.244+734.758L701.244+763.758L670.244+778.758Z" opacity="1" fill="#72563d"/>
<path d="M525.244+1381.76L523.244+1368.76L527.244+1365.76L552.244+1371.76L551.244+1381.76L525.244+1381.76Z" opacity="1" fill="#938264"/>
<path d="M515.244+1141.76L506.244+1136.76L466.244+1080.76L467.244+1078.76L483.244+1064.76L503.244+1073.76L587.244+1141.76L515.244+1141.76Z" opacity="1" fill="#221207"/>
<path d="M661.244+878.758L653.244+863.758L677.244+842.758L690.244+849.758L691.244+860.758L661.244+878.758Z" opacity="1" fill="#dfcdb5"/>
<path d="M680.244+1389.76L677.244+1378.76L691.244+1358.76L710.244+1365.76L740.244+1378.76L741.244+1380.76L740.244+1381.76L680.244+1389.76Z" opacity="1" fill="#422918"/>
<path d="M599.244+558.758L644.244+550.758L652.244+567.758L618.244+579.758L599.244+558.758Z" opacity="1" fill="#947959"/>
<path d="M597.244+685.758L589.244+679.758L589.244+678.758L607.244+664.758L616.244+658.758L647.244+689.758L643.244+696.758L597.244+685.758Z" opacity="1" fill="#341908"/>
<path d="M552.244+1384.76L551.244+1381.76L552.244+1371.76L576.244+1357.76L580.244+1358.76L585.244+1373.76L552.244+1384.76Z" opacity="1" fill="#7b694e"/>
<path d="M721.244+1301.76L703.244+1281.76L721.244+1241.76L721.244+1240.76L739.244+1289.76L721.244+1301.76Z" opacity="1" fill="#462b12"/>
<path d="M444.244+475.758L447.244+465.758L474.244+451.758L490.244+450.758L496.244+452.758L500.244+459.758L450.244+475.758L444.244+475.758Z" opacity="1" fill="#61472f"/>
<path d="M563.244+1224.76L536.244+1207.76L537.244+1203.76L587.244+1150.76L591.244+1146.76L592.244+1148.76L603.244+1228.76L604.244+1232.76L601.244+1235.76L563.244+1224.76Z" opacity="1" fill="#1f1006"/>
<path d="M499.244+1044.76L491.244+1048.76L461.244+964.758L518.244+949.758L522.244+951.758L525.244+979.758L499.244+1044.76Z" opacity="1" fill="#220f04"/>
<path d="M535.244+1400.76L528.244+1403.76L525.244+1385.76L525.244+1381.76L551.244+1381.76L552.244+1384.76L552.244+1385.76L535.244+1400.76Z" opacity="1" fill="#342012"/>
<path d="M651.244+830.758L658.244+815.758L672.244+803.758L679.244+813.758L681.244+819.758L677.244+836.758L651.244+830.758Z" opacity="1" fill="#967457"/>
<path d="M486.244+1494.76L473.244+1460.76L473.244+1457.76L509.244+1463.76L516.244+1473.76L519.244+1494.76L486.244+1494.76Z" opacity="1" fill="#957a55"/>
<path d="M645.244+1149.76L637.244+1146.76L684.244+1131.76L688.244+1140.76L687.244+1144.76L645.244+1149.76Z" opacity="1" fill="#987c5a"/>
<path d="M676.244+701.758L670.244+684.758L671.244+679.758L729.244+699.758L716.244+710.758L676.244+701.758Z" opacity="1" fill="#d2bba2"/>
<path d="M689.244+1437.76L682.244+1433.76L680.244+1424.76L680.244+1421.76L719.244+1421.76L710.244+1440.76L689.244+1437.76Z" opacity="1" fill="#392212"/>
<path d="M596.244+999.758L592.244+952.758L592.244+951.758L614.244+951.758L657.244+959.758L663.244+981.758L658.244+984.758L596.244+999.758Z" opacity="1" fill="#4c2b12"/>
<path d="M626.244+1390.76L618.244+1385.76L636.244+1355.76L638.244+1356.76L646.244+1368.76L649.244+1377.76L626.244+1390.76Z" opacity="1" fill="#917c63"/>
<path d="M563.244+624.758L559.244+619.758L570.244+607.758L580.244+604.758L598.244+609.758L588.244+618.758L563.244+624.758Z" opacity="1" fill="#ab9378"/>
<path d="M530.244+1430.76L524.244+1413.76L528.244+1403.76L535.244+1400.76L549.244+1401.76L585.244+1427.76L581.244+1438.76L574.244+1437.76L530.244+1430.76Z" opacity="1" fill="#644a2d"/>
<path d="M733.244+1228.76L764.244+1222.76L786.244+1223.76L782.244+1233.76L767.244+1237.76L733.244+1228.76Z" opacity="1" fill="#cfbea3"/>
<path d="M618.244+791.758L627.244+765.758L628.244+764.758L644.244+771.758L668.244+795.758L618.244+791.758Z" opacity="1" fill="#4c3121"/>
<path d="M644.244+771.758L628.244+764.758L649.244+754.758L666.244+764.758L670.244+777.758L644.244+771.758Z" opacity="1" fill="#a68f7a"/>
<path d="M638.244+1356.76L636.244+1355.76L635.244+1352.76L632.244+1346.76L636.244+1339.76L668.244+1339.76L676.244+1344.76L638.244+1356.76Z" opacity="1" fill="#341b09"/>
<path d="M315.244+953.758L314.244+952.758L310.244+928.758L324.244+919.758L348.244+923.758L344.244+955.758L315.244+953.758Z" opacity="1" fill="#533f29"/>
<path d="M486.244+592.758L481.244+589.758L479.244+587.758L469.244+565.758L467.244+561.758L528.244+491.758L549.244+502.758L551.244+506.758L553.244+519.758L553.244+521.758L551.244+530.758L529.244+568.758L486.244+592.758Z" opacity="1" fill="#452c18"/>
<path d="M683.244+1196.76L682.244+1190.76L684.244+1179.76L713.244+1179.76L715.244+1179.76L710.244+1214.76L683.244+1196.76Z" opacity="1" fill="#3c2411"/>
<path d="M717.244+1151.76L702.244+1140.76L733.244+1116.76L735.244+1115.76L755.244+1146.76L732.244+1155.76L717.244+1151.76Z" opacity="1" fill="#6a4f36"/>
<path d="M378.244+679.758L378.244+675.758L386.244+652.758L395.244+648.758L443.244+651.758L444.244+651.758L411.244+673.758L378.244+679.758Z" opacity="1" fill="#2e1b0e"/>
<path d="M750.244+1349.76L737.244+1331.76L736.244+1329.76L749.244+1307.76L759.244+1299.76L787.244+1327.76L750.244+1349.76Z" opacity="1" fill="#816343"/>
<path d="M481.244+886.758L487.244+846.758L532.244+838.758L535.244+852.758L520.244+888.758L519.244+889.758L481.244+886.758Z" opacity="1" fill="#260f05"/>
<path d="M710.244+1365.76L710.244+1338.76L737.244+1331.76L750.244+1349.76L740.244+1378.76L710.244+1365.76Z" opacity="1" fill="#876c4d"/>
<path d="M420.244+1052.76L396.244+974.758L415.244+949.758L437.244+949.758L461.244+964.758L491.244+1048.76L483.244+1064.76L467.244+1078.76L420.244+1052.76Z" opacity="1" fill="#221005"/>
<path d="M366.244+1463.76L367.244+1448.76L415.244+1444.76L419.244+1448.76L404.244+1486.76L394.244+1485.76L366.244+1463.76Z" opacity="1" fill="#58432d"/>
<path d="M576.244+1507.76L572.244+1477.76L582.244+1441.76L629.244+1466.76L633.244+1499.76L576.244+1507.76Z" opacity="1" fill="#88642c"/>
<path d="M690.244+849.758L677.244+842.758L677.244+836.758L681.244+819.758L711.244+832.758L702.244+847.758L690.244+849.758Z" opacity="1" fill="#775a3f"/>
<path d="M492.244+1338.76L476.244+1308.76L488.244+1290.76L507.244+1282.76L525.244+1297.76L527.244+1301.76L527.244+1303.76L492.244+1338.76Z" opacity="1" fill="#7f603c"/>
<path d="M352.244+1064.76L345.244+1048.76L342.244+1011.76L393.244+975.758L396.244+974.758L420.244+1052.76L352.244+1064.76Z" opacity="1" fill="#352212"/>
<path d="M637.244+660.758L619.244+656.758L624.244+641.758L631.244+636.758L671.244+641.758L673.244+654.758L637.244+660.758Z" opacity="1" fill="#bea68d"/>
<path d="M525.244+1519.76L524.244+1517.76L519.244+1494.76L516.244+1473.76L534.244+1471.76L572.244+1477.76L576.244+1507.76L567.244+1518.76L525.244+1519.76Z" opacity="1" fill="#705023"/>
<path d="M663.244+720.758L661.244+705.758L662.244+704.758L676.244+701.758L716.244+710.758L707.244+728.758L699.244+730.758L663.244+720.758Z" opacity="1" fill="#6a4a2e"/>
<path d="M537.244+1255.76L549.244+1248.76L597.244+1253.76L597.244+1260.76L578.244+1266.76L537.244+1255.76Z" opacity="1" fill="#a6957a"/>
<path d="M611.244+858.758L609.244+824.758L613.244+817.758L617.244+819.758L643.244+839.758L651.244+862.758L647.244+862.758L611.244+858.758Z" opacity="1" fill="#432514"/>
<path d="M533.244+835.758L536.244+828.758L536.244+827.758L581.244+836.758L578.244+853.758L533.244+835.758Z" opacity="1" fill="#83664d"/>
<path d="M760.244+1390.76L754.244+1389.76L741.244+1380.76L740.244+1378.76L750.244+1349.76L787.244+1327.76L796.244+1325.76L796.244+1377.76L760.244+1390.76Z" opacity="1" fill="#a18b6c"/>
<path d="M644.244+605.758L645.244+597.758L653.244+567.758L658.244+568.758L670.244+601.758L660.244+607.758L644.244+605.758Z" opacity="1" fill="#ac977f"/>
<path d="M531.244+1351.76L524.244+1326.76L527.244+1303.76L527.244+1301.76L556.244+1313.76L563.244+1326.76L569.244+1347.76L531.244+1351.76Z" opacity="1" fill="#3e2813"/>
<path d="M680.244+1284.76L663.244+1283.76L663.244+1244.76L669.244+1241.76L721.244+1241.76L703.244+1281.76L680.244+1284.76Z" opacity="1" fill="#45270c"/>
<path d="M654.244+1450.76L668.244+1447.76L683.244+1462.76L683.244+1485.76L654.244+1450.76Z" opacity="1" fill="#5e3c1b"/>
<path d="M686.244+901.758L680.244+904.758L665.244+891.758L661.244+878.758L691.244+860.758L703.244+877.758L700.244+886.758L686.244+901.758Z" opacity="1" fill="#c1a98d"/>
<path d="M457.244+372.758L424.244+334.758L426.244+326.758L461.244+314.758L489.244+311.758L492.244+312.758L503.244+366.758L497.244+375.758L457.244+372.758Z" opacity="1" fill="#3a2717"/>
<path d="M399.244+861.758L359.244+797.758L447.244+800.758L455.244+804.758L456.244+818.758L455.244+830.758L433.244+852.758L399.244+861.758Z" opacity="1" fill="#271308"/>
<path d="M583.244+860.758L583.244+858.758L589.244+854.758L609.244+859.758L605.244+871.758L583.244+860.758Z" opacity="1" fill="#a88c75"/>
<path d="M520.244+888.758L535.244+852.758L551.244+864.758L575.244+889.758L581.244+898.758L563.244+899.758L520.244+888.758Z" opacity="1" fill="#412411"/>
<path d="M347.244+756.758L373.244+703.758L408.244+729.758L347.244+756.758Z" opacity="1" fill="#88735e"/>
<path d="M600.244+368.758L595.244+366.758L597.244+335.758L636.244+350.758L642.244+368.758L600.244+368.758Z" opacity="1" fill="#765c44"/>
<path d="M580.244+1358.76L576.244+1357.76L569.244+1347.76L563.244+1326.76L585.244+1324.76L594.244+1347.76L580.244+1358.76Z" opacity="1" fill="#1a0c03"/>
<path d="M485.244+625.758L486.244+606.758L546.244+618.758L539.244+625.758L485.244+625.758Z" opacity="1" fill="#201109"/>
<path d="M537.244+1255.76L509.244+1261.76L505.244+1239.76L536.244+1207.76L563.244+1224.76L549.244+1248.76L537.244+1255.76Z" opacity="1" fill="#3d2d1b"/>
<path d="M711.244+1441.76L710.244+1440.76L719.244+1421.76L727.244+1408.76L744.244+1438.76L738.244+1444.76L711.244+1441.76Z" opacity="1" fill="#2a160b"/>
<path d="M484.244+796.758L468.244+796.758L466.244+795.758L475.244+773.758L478.244+769.758L530.244+754.758L534.244+761.758L539.244+773.758L540.244+784.758L540.244+790.758L484.244+796.758Z" opacity="1" fill="#2a1209"/>
<path d="M647.244+689.758L616.244+658.758L619.244+656.758L637.244+660.758L656.244+673.758L658.244+683.758L653.244+691.758L647.244+689.758Z" opacity="1" fill="#583a20"/>
<path d="M490.244+1363.76L496.244+1349.76L524.244+1326.76L531.244+1351.76L527.244+1365.76L523.244+1368.76L490.244+1363.76Z" opacity="1" fill="#190f08"/>
<path d="M660.244+957.758L670.244+941.758L682.244+926.758L690.244+936.758L704.244+956.758L703.244+971.758L660.244+957.758Z" opacity="1" fill="#89715a"/>
<path d="M615.244+1341.76L618.244+1316.76L645.244+1320.76L636.244+1339.76L632.244+1346.76L615.244+1341.76Z" opacity="1" fill="#b49e84"/>
<path d="M603.244+1228.76L592.244+1148.76L626.244+1169.76L634.244+1197.76L603.244+1228.76Z" opacity="1" fill="#3e2b1b"/>
<path d="M559.244+619.758L549.244+616.758L529.244+568.758L551.244+530.758L573.244+571.758L570.244+607.758L559.244+619.758Z" opacity="1" fill="#7c6248"/>
<path d="M651.244+1392.76L649.244+1377.76L677.244+1378.76L680.244+1389.76L679.244+1390.76L676.244+1398.76L651.244+1392.76Z" opacity="1" fill="#6d4d2f"/>
<path d="M704.244+986.758L704.244+981.758L737.244+965.758L748.244+975.758L704.244+986.758Z" opacity="1" fill="#bcab96"/>
<path d="M721.244+929.758L719.244+927.758L718.244+925.758L719.244+910.758L742.244+908.758L748.244+915.758L748.244+917.758L721.244+929.758Z" opacity="1" fill="#402716"/>
<path d="M412.244+1313.76L428.244+1296.76L464.244+1285.76L477.244+1285.76L488.244+1290.76L476.244+1308.76L460.244+1323.76L412.244+1313.76Z" opacity="1" fill="#160a04"/>
<path d="M322.244+1001.76L315.244+953.758L344.244+955.758L393.244+975.758L342.244+1011.76L322.244+1001.76Z" opacity="1" fill="#2e1807"/>
<path d="M735.244+1113.76L735.244+1099.76L750.244+1089.76L758.244+1092.76L762.244+1094.76L766.244+1113.76L735.244+1113.76Z" opacity="1" fill="#715235"/>
<path d="M502.244+385.758L497.244+375.758L503.244+366.758L528.244+351.758L569.244+392.758L548.244+400.758L502.244+385.758Z" opacity="1" fill="#271508"/>
<path d="M709.244+953.758L718.244+943.758L751.244+933.758L756.244+943.758L742.244+953.758L709.244+953.758Z" opacity="1" fill="#462d1c"/>
<path d="M534.244+1471.76L516.244+1473.76L509.244+1463.76L530.244+1430.76L574.244+1437.76L534.244+1471.76Z" opacity="1" fill="#311a09"/>
<path d="M575.244+889.758L551.244+864.758L580.244+856.758L583.244+858.758L583.244+860.758L575.244+889.758Z" opacity="1" fill="#6c503a"/>
<path d="M475.244+1413.76L474.244+1410.76L478.244+1374.76L478.244+1373.76L500.244+1388.76L510.244+1411.76L475.244+1413.76Z" opacity="1" fill="#231209"/>
<path d="M712.244+887.758L700.244+886.758L703.244+877.758L712.244+864.758L741.244+857.758L741.244+858.758L712.244+887.758Z" opacity="1" fill="#cab399"/>
<path d="M479.244+1368.76L462.244+1351.76L460.244+1323.76L476.244+1308.76L492.244+1338.76L496.244+1349.76L490.244+1363.76L479.244+1368.76Z" opacity="1" fill="#37220e"/>
<path d="M499.244+1044.76L525.244+979.758L577.244+1018.76L547.244+1029.76L499.244+1044.76Z" opacity="1" fill="#130602"/>
<path d="M606.244+1295.76L599.244+1290.76L602.244+1275.76L661.244+1285.76L658.244+1303.76L646.244+1317.76L606.244+1295.76Z" opacity="1" fill="#180e07"/>
<path d="M761.088+1095.19L757.088+1093.19L779.088+1071.19L784.088+1095.19L761.088+1095.19Z" opacity="1" fill="#c1a98d"/>
<path d="M600.088+1028.19L598.088+1025.19L614.088+1020.19L658.088+1009.19L668.088+1013.19L660.088+1028.19L600.088+1028.19Z" opacity="1" fill="#412a1b"/>
<path d="M691.088+1311.19L679.088+1285.19L702.088+1282.19L720.088+1302.19L720.088+1307.19L698.088+1313.19L691.088+1311.19Z" opacity="1" fill="#361f0b"/>
<path d="M477.088+770.194L467.088+745.194L460.088+706.194L461.088+705.194L529.088+745.194L529.088+755.194L477.088+770.194Z" opacity="1" fill="#351c0e"/>
<path d="M467.088+797.194L483.088+797.194L538.088+815.194L535.088+828.194L535.088+829.194L511.088+819.194L467.088+797.194Z" opacity="1" fill="#29150e"/>
<path d="M679.088+663.194L672.088+655.194L670.088+642.194L680.088+623.194L685.088+620.194L686.088+620.194L695.088+665.194L679.088+663.194Z" opacity="1" fill="#8a7157"/>
<path d="M758.088+1300.19L752.088+1285.19L755.088+1281.19L770.088+1289.19L800.088+1323.19L795.088+1326.19L786.088+1328.19L758.088+1300.19Z" opacity="1" fill="#b1a08d"/>
<path d="M487.088+646.194L478.088+643.194L484.088+626.194L538.088+626.194L534.088+638.194L487.088+646.194Z" opacity="1" fill="#574231"/>
<path d="M598.088+559.194L552.088+522.194L552.088+520.194L643.088+551.194L598.088+559.194Z" opacity="1" fill="#6e5133"/>
<path d="M738.088+998.194L703.088+999.194L701.088+993.194L703.088+987.194L747.088+976.194L761.088+980.194L738.088+998.194Z" opacity="1" fill="#2d1a10"/>
<path d="M499.088+1389.19L477.088+1374.19L478.088+1369.19L489.088+1364.19L522.088+1369.19L524.088+1382.19L524.088+1386.19L499.088+1389.19Z" opacity="1" fill="#af9c80"/>
<path d="M643.088+923.194L643.088+900.194L664.088+892.194L679.088+905.194L679.088+917.194L669.088+921.194L643.088+923.194Z" opacity="1" fill="#604026"/>
<path d="M548.088+1402.19L534.088+1401.19L551.088+1386.19L563.088+1395.19L548.088+1402.19Z" opacity="1" fill="#120602"/>
<path d="M526.088+1366.19L530.088+1352.19L568.088+1348.19L575.088+1358.19L551.088+1372.19L526.088+1366.19Z" opacity="1" fill="#2b1c0d"/>
<path d="M531.088+741.194L547.088+698.194L565.088+689.194L587.088+681.194L590.088+693.194L583.088+736.194L531.088+741.194Z" opacity="1" fill="#63452f"/>
<path d="M446.088+466.194L442.088+454.194L473.088+452.194L446.088+466.194Z" opacity="1" fill="#352419"/>
<path d="M642.088+840.194L616.088+820.194L657.088+816.194L650.088+831.194L642.088+840.194Z" opacity="1" fill="#65432c"/>
<path d="M606.088+1341.19L597.088+1315.19L597.088+1293.19L598.088+1291.19L605.088+1296.19L617.088+1317.19L614.088+1342.19L606.088+1341.19Z" opacity="1" fill="#8b7258"/>
<path d="M518.088+1173.19L514.088+1142.19L586.088+1142.19L590.088+1142.19L590.088+1147.19L586.088+1151.19L518.088+1173.19Z" opacity="1" fill="#7b644c"/>
<path d="M614.088+1020.19L598.088+1025.19L592.088+1016.19L595.088+1000.19L657.088+985.194L657.088+999.194L614.088+1020.19Z" opacity="1" fill="#c3a57e"/>
<path d="M446.088+801.194L424.088+755.194L425.088+753.194L442.088+757.194L474.088+774.194L465.088+796.194L454.088+805.194L446.088+801.194Z" opacity="1" fill="#241007"/>
<path d="M652.088+864.194L650.088+863.194L642.088+840.194L650.088+831.194L676.088+837.194L676.088+843.194L652.088+864.194Z" opacity="1" fill="#58371e"/>
<path d="M670.088+680.194L671.088+672.194L679.088+663.194L695.088+665.194L710.088+674.194L729.088+699.194L728.088+700.194L670.088+680.194Z" opacity="1" fill="#a88b6e"/>
<path d="M533.088+1472.19L573.088+1438.19L580.088+1439.19L581.088+1442.19L571.088+1478.19L533.088+1472.19Z" opacity="1" fill="#946a3c"/>
<path d="M489.088+913.194L520.088+907.194L516.088+944.194L489.088+913.194Z" opacity="1" fill="#7e603f"/>
<path d="M435.088+1275.19L433.088+1268.19L448.088+1256.19L476.088+1286.19L463.088+1286.19L435.088+1275.19Z" opacity="1" fill="#86684b"/>
<path d="M738.088+998.194L761.088+980.194L772.088+977.194L765.088+1013.19L755.088+1016.19L738.088+998.194Z" opacity="1" fill="#8b7254"/>
<path d="M551.088+1386.19L551.088+1385.19L584.088+1374.19L589.088+1385.19L586.088+1399.19L563.088+1395.19L551.088+1386.19Z" opacity="1" fill="#22150e"/>
<path d="M765.088+1114.19L761.088+1095.19L784.088+1095.19L796.088+1104.19L778.088+1125.19L765.088+1114.19Z" opacity="1" fill="#7d6956"/>
<path d="M637.088+1175.19L625.088+1170.19L591.088+1149.19L590.088+1147.19L590.088+1142.19L590.088+1141.19L636.088+1147.19L644.088+1150.19L670.088+1169.19L637.088+1175.19Z" opacity="1" fill="#755c43"/>
<path d="M690.088+1359.19L688.088+1356.19L684.088+1346.19L694.088+1339.19L709.088+1339.19L709.088+1366.19L690.088+1359.19Z" opacity="1" fill="#bda688"/>
<path d="M548.088+1249.19L562.088+1225.19L600.088+1236.19L596.088+1254.19L548.088+1249.19Z" opacity="1" fill="#483823"/>
<path d="M643.088+772.194L669.088+778.194L669.088+779.194L667.088+796.194L643.088+772.194Z" opacity="1" fill="#846955"/>
<path d="M611.088+910.194L594.088+917.194L593.088+913.194L592.088+910.194L593.088+907.194L630.088+876.194L646.088+863.194L611.088+910.194Z" opacity="1" fill="#c0a78e"/>
<path d="M502.088+367.194L491.088+313.194L556.088+315.194L527.088+352.194L502.088+367.194Z" opacity="1" fill="#2d180a"/>
<path d="M678.088+1391.19L679.088+1390.19L739.088+1382.19L727.088+1401.19L704.088+1404.19L678.088+1391.19Z" opacity="1" fill="#1e0e07"/>
<path d="M592.088+1384.19L634.088+1353.19L635.088+1356.19L617.088+1386.19L592.088+1384.19Z" opacity="1" fill="#201308"/>
<path d="M485.088+607.194L485.088+593.194L528.088+569.194L548.088+617.194L545.088+619.194L485.088+607.194Z" opacity="1" fill="#715a46"/>
<path d="M623.088+642.194L605.088+608.194L607.088+595.194L610.088+592.194L620.088+598.194L640.088+611.194L638.088+626.194L630.088+637.194L623.088+642.194Z" opacity="1" fill="#5b4029"/>
<path d="M743.088+1439.19L726.088+1409.19L727.088+1401.19L739.088+1382.19L740.088+1381.19L753.088+1390.19L761.088+1425.19L758.088+1445.19L743.088+1439.19Z" opacity="1" fill="#573e28"/>
<path d="M537.088+909.194L536.088+910.194L520.088+906.194L518.088+890.194L519.088+889.194L562.088+900.194L537.088+909.194Z" opacity="1" fill="#573d28"/>
<path d="M617.088+1317.19L605.088+1296.19L645.088+1318.19L644.088+1320.19L644.088+1321.19L617.088+1317.19Z" opacity="1" fill="#614f3c"/>
<path d="M442.088+454.194L436.088+453.194L435.088+446.194L454.088+422.194L489.088+451.194L473.088+452.194L442.088+454.194Z" opacity="1" fill="#392413"/>
<path d="M535.088+645.194L534.088+638.194L538.088+626.194L545.088+619.194L548.088+617.194L558.088+620.194L562.088+625.194L574.088+654.194L535.088+645.194Z" opacity="1" fill="#27160b"/>
<path d="M732.088+1229.19L723.088+1230.19L723.088+1229.19L733.088+1209.19L755.088+1203.19L763.088+1223.19L732.088+1229.19Z" opacity="1" fill="#6f573e"/>
<path d="M660.088+1028.19L668.088+1013.19L702.088+1004.19L703.088+1012.19L686.088+1054.19L660.088+1028.19Z" opacity="1" fill="#5e452d"/>
<path d="M372.088+704.194L373.088+701.194L422.088+710.194L437.088+717.194L431.088+728.194L407.088+730.194L372.088+704.194Z" opacity="1" fill="#351f0e"/>
<path d="M662.088+982.194L656.088+960.194L659.088+958.194L702.088+972.194L703.088+982.194L703.088+987.194L701.088+993.194L686.088+989.194L662.088+982.194Z" opacity="1" fill="#624329"/>
<path d="M534.088+646.194L535.088+645.194L574.088+654.194L588.088+679.194L588.088+680.194L587.088+681.194L565.088+689.194L534.088+646.194Z" opacity="1" fill="#3a251a"/>
<path d="M668.088+1242.19L680.088+1200.19L682.088+1197.19L709.088+1215.19L723.088+1229.19L723.088+1230.19L721.088+1240.19L720.088+1241.19L720.088+1242.19L668.088+1242.19Z" opacity="1" fill="#8b7358"/>
<path d="M555.088+1314.19L526.088+1302.19L524.088+1298.19L577.088+1267.19L596.088+1261.19L601.088+1276.19L598.088+1291.19L597.088+1293.19L555.088+1314.19Z" opacity="1" fill="#2a1c0f"/>
<path d="M620.088+598.194L610.088+592.194L617.088+580.194L651.088+568.194L652.088+568.194L644.088+598.194L620.088+598.194Z" opacity="1" fill="#482c16"/>
<path d="M620.088+598.194L644.088+598.194L643.088+606.194L640.088+611.194L620.088+598.194Z" opacity="1" fill="#897156"/>
<path d="M735.088+1330.19L724.088+1318.19L720.088+1307.19L720.088+1302.19L738.088+1290.19L742.088+1289.19L748.088+1308.19L735.088+1330.19Z" opacity="1" fill="#b09472"/>
<path d="M681.088+1166.19L686.088+1145.19L687.088+1141.19L701.088+1141.19L716.088+1152.19L714.088+1166.19L681.088+1166.19Z" opacity="1" fill="#54361e"/>
<path d="M540.088+808.194L539.088+793.194L614.088+793.194L615.088+793.194L611.088+811.194L540.088+808.194Z" opacity="1" fill="#cbb59d"/>
<path d="M711.088+888.194L740.088+859.194L748.088+864.194L739.088+890.194L711.088+888.194Z" opacity="1" fill="#6a4b2f"/>
<path d="M483.088+797.194L539.088+791.194L539.088+793.194L540.088+808.194L538.088+815.194L483.088+797.194Z" opacity="1" fill="#97806d"/>
<path d="M625.088+1399.19L625.088+1391.19L648.088+1378.19L650.088+1393.19L645.088+1410.19L636.088+1407.19L625.088+1399.19Z" opacity="1" fill="#382315"/>
<path d="M411.088+1314.19L404.088+1316.19L403.088+1315.19L400.088+1261.19L404.088+1256.19L433.088+1268.19L435.088+1275.19L427.088+1297.19L411.088+1314.19Z" opacity="1" fill="#29180b"/>
<path d="M562.088+509.194L636.088+515.194L640.088+517.194L644.088+520.194L643.088+536.194L562.088+509.194Z" opacity="1" fill="#8d7561"/>
<path d="M682.088+1463.19L667.088+1448.19L681.088+1434.19L688.088+1438.19L686.088+1458.19L682.088+1463.19Z" opacity="1" fill="#c3b2a1"/>
<path d="M655.088+674.194L636.088+661.194L672.088+655.194L679.088+663.194L671.088+672.194L655.088+674.194Z" opacity="1" fill="#b79f85"/>
<path d="M536.088+910.194L537.088+909.194L543.088+913.194L592.088+945.194L591.088+952.194L591.088+953.194L564.088+951.194L536.088+910.194Z" opacity="1" fill="#a58563"/>
<path d="M678.088+814.194L671.088+804.194L670.088+801.194L686.088+796.194L705.088+796.194L718.088+807.194L678.088+814.194Z" opacity="1" fill="#d5c3b0"/>
<path d="M603.088+1233.19L602.088+1229.19L633.088+1198.19L646.088+1202.19L644.088+1216.19L638.088+1232.19L603.088+1233.19Z" opacity="1" fill="#1c1007"/>
<path d="M679.088+1422.19L679.088+1417.19L704.088+1404.19L727.088+1401.19L726.088+1409.19L718.088+1422.19L679.088+1422.19Z" opacity="1" fill="#897054"/>
<path d="M466.088+562.194L433.088+526.194L455.088+515.194L525.088+490.194L527.088+492.194L466.088+562.194Z" opacity="1" fill="#241107"/>
<path d="M499.088+1389.19L524.088+1386.19L527.088+1404.19L523.088+1414.19L509.088+1412.19L499.088+1389.19Z" opacity="1" fill="#291507"/>
<path d="M427.088+1297.19L435.088+1275.19L463.088+1286.19L427.088+1297.19Z" opacity="1" fill="#240c04"/>
<path d="M614.088+1020.19L657.088+999.194L658.088+1003.19L658.088+1009.19L614.088+1020.19Z" opacity="1" fill="#6b503b"/>
<path d="M679.088+919.194L679.088+917.194L679.088+905.194L685.088+902.194L718.088+911.194L717.088+926.194L679.088+919.194Z" opacity="1" fill="#3f1f0c"/>
<path d="M717.088+944.194L720.088+930.194L747.088+918.194L750.088+934.194L717.088+944.194Z" opacity="1" fill="#a79074"/>
<path d="M635.088+1340.19L644.088+1321.19L644.088+1320.19L667.088+1340.19L635.088+1340.19Z" opacity="1" fill="#7b6252"/>
<path d="M679.088+1417.19L675.088+1412.19L675.088+1399.19L678.088+1391.19L704.088+1404.19L679.088+1417.19Z" opacity="1" fill="#231408"/>
<path d="M636.088+942.194L613.088+952.194L591.088+952.194L592.088+945.194L593.088+938.194L643.088+923.194L669.088+921.194L636.088+942.194Z" opacity="1" fill="#b49675"/>
<path d="M593.088+750.194L589.088+747.194L583.088+736.194L590.088+693.194L614.088+741.194L614.088+742.194L593.088+750.194Z" opacity="1" fill="#381c0e"/>
<path d="M442.088+757.194L467.088+745.194L477.088+770.194L474.088+774.194L442.088+757.194Z" opacity="1" fill="#694f3a"/>
<path d="M529.088+676.194L531.088+650.194L534.088+646.194L565.088+689.194L547.088+698.194L540.088+694.194L529.088+676.194Z" opacity="1" fill="#7a624e"/>
<path d="M708.088+954.194L703.088+957.194L689.088+937.194L718.088+928.194L720.088+930.194L717.088+944.194L708.088+954.194Z" opacity="1" fill="#462d19"/>
<path d="M588.088+855.194L583.088+836.194L608.088+825.194L610.088+859.194L608.088+860.194L588.088+855.194Z" opacity="1" fill="#1e0a04"/>
<path d="M614.088+451.194L606.088+451.194L585.088+399.194L639.088+399.194L614.088+451.194Z" opacity="1" fill="#9e958a"/>
<path d="M759.088+1391.19L795.088+1378.19L829.088+1389.19L830.088+1393.19L817.088+1429.19L759.088+1391.19Z" opacity="1" fill="#aa957b"/>
<path d="M605.088+1420.19L592.088+1418.19L625.088+1399.19L636.088+1407.19L605.088+1420.19Z" opacity="1" fill="#21140a"/>
<path d="M495.088+1350.19L491.088+1339.19L526.088+1304.19L523.088+1327.19L495.088+1350.19Z" opacity="1" fill="#301705"/>
<path d="M501.088+653.194L531.088+650.194L529.088+676.194L501.088+653.194Z" opacity="1" fill="#947d64"/>
<path d="M759.088+1265.19L741.088+1252.19L766.088+1238.19L781.088+1234.19L777.088+1260.19L759.088+1265.19Z" opacity="1" fill="#715c48"/>
<path d="M686.088+1458.19L688.088+1438.19L709.088+1441.19L710.088+1442.19L711.088+1458.19L686.088+1458.19Z" opacity="1" fill="#c3ad93"/>
<path d="M733.088+1033.19L703.088+1012.19L702.088+1004.19L703.088+999.194L738.088+998.194L755.088+1016.19L745.088+1029.19L733.088+1033.19Z" opacity="1" fill="#896f54"/>
<path d="M490.088+1165.19L505.088+1137.19L514.088+1142.19L518.088+1173.19L518.088+1179.19L490.088+1165.19Z" opacity="1" fill="#402d1c"/>
<path d="M659.702+1007.96L659.702+1001.96L687.702+987.96L702.702+991.96L704.702+997.96L703.702+1002.96L669.702+1011.96L659.702+1007.96Z" opacity="1" fill="#c2ae94"/>
<path d="M604.702+874.96L605.702+870.96L609.702+858.96L611.702+857.96L647.702+861.96L631.702+874.96L604.702+874.96Z" opacity="1" fill="#97806a"/>
<path d="M594.702+905.96L604.702+874.96L631.702+874.96L594.702+905.96Z" opacity="1" fill="#6c4e35"/>
<path d="M594.702+936.96L595.702+915.96L612.702+908.96L644.702+898.96L644.702+921.96L594.702+936.96Z" opacity="1" fill="#462714"/>
<path d="M311.702+880.96L319.702+877.96L339.702+876.96L343.702+880.96L326.702+912.96L311.702+880.96Z" opacity="1" fill="#4c3520"/>
<path d="M687.702+794.96L671.702+799.96L668.702+794.96L670.702+777.96L701.702+762.96L706.702+771.96L706.702+774.96L687.702+794.96Z" opacity="1" fill="#664a34"/>
<path d="M695.702+1337.96L708.702+1325.96L725.702+1316.96L736.702+1328.96L737.702+1330.96L710.702+1337.96L695.702+1337.96Z" opacity="1" fill="#40291b"/>
<path d="M690.702+935.96L682.702+925.96L680.702+917.96L718.702+924.96L719.702+926.96L690.702+935.96Z" opacity="1" fill="#baa186"/>
<path d="M649.702+1376.96L646.702+1367.96L689.702+1354.96L691.702+1357.96L677.702+1377.96L649.702+1376.96Z" opacity="1" fill="#2d1b12"/>
<path d="M695.702+1337.96L685.702+1344.96L683.702+1329.96L696.702+1319.96L708.702+1325.96L695.702+1337.96Z" opacity="1" fill="#372213"/>
<path d="M696.702+1319.96L699.702+1311.96L721.702+1305.96L725.702+1316.96L708.702+1325.96L696.702+1319.96Z" opacity="1" fill="#ab8a61"/>
<path d="M591.702+767.96L594.702+748.96L615.702+740.96L627.702+764.96L618.702+790.96L616.702+791.96L615.702+791.96L606.702+783.96L591.702+767.96Z" opacity="1" fill="#3b1f11"/>
<path d="M706.702+794.96L708.702+776.96L738.702+795.96L738.702+805.96L734.702+809.96L719.702+805.96L706.702+794.96Z" opacity="1" fill="#64452b"/>
<path d="M715.702+1178.96L713.702+1178.96L715.702+1164.96L717.702+1150.96L732.702+1154.96L727.702+1179.96L715.702+1178.96Z" opacity="1" fill="#c0a783"/>
<path d="M645.702+1318.96L646.702+1316.96L658.702+1302.96L680.702+1323.96L683.702+1329.96L685.702+1344.96L676.702+1343.96L668.702+1338.96L645.702+1318.96Z" opacity="1" fill="#1d1108"/>
<path d="M639.702+624.96L641.702+609.96L644.702+604.96L660.702+606.96L660.702+620.96L639.702+624.96Z" opacity="1" fill="#523515"/>
<path d="M645.702+1214.96L647.702+1200.96L650.702+1193.96L682.702+1189.96L683.702+1195.96L681.702+1198.96L645.702+1214.96Z" opacity="1" fill="#402716"/>
<path d="M469.702+1187.96L491.702+1163.96L519.702+1177.96L519.702+1183.96L469.702+1187.96Z" opacity="1" fill="#5f452b"/>
<path d="M617.702+738.96L615.702+739.96L591.702+691.96L588.702+679.96L589.702+678.96L597.702+684.96L632.702+710.96L628.702+726.96L617.702+738.96Z" opacity="1" fill="#533520"/>
<path d="M739.702+1288.96L721.702+1239.96L722.702+1238.96L742.702+1250.96L760.702+1263.96L756.702+1279.96L753.702+1283.96L743.702+1287.96L739.702+1288.96Z" opacity="1" fill="#61482f"/>
<path d="M687.702+794.96L706.702+774.96L708.702+776.96L706.702+794.96L687.702+794.96Z" opacity="1" fill="#593b21"/>
<path d="M637.702+940.96L670.702+919.96L680.702+915.96L680.702+917.96L682.702+925.96L670.702+940.96L637.702+940.96Z" opacity="1" fill="#d0bba2"/>
<path d="M737.702+964.96L742.702+952.96L756.702+942.96L786.702+963.96L773.702+975.96L762.702+978.96L748.702+974.96L737.702+964.96Z" opacity="1" fill="#c3b39f"/>
<path d="M628.702+763.96L627.702+764.96L615.702+740.96L615.702+739.96L617.702+738.96L650.702+738.96L649.702+753.96L628.702+763.96Z" opacity="1" fill="#52311b"/>
<path d="M614.702+950.96L637.702+940.96L670.702+940.96L660.702+956.96L657.702+958.96L614.702+950.96Z" opacity="1" fill="#331a0d"/>
<path d="M643.702+1426.96L646.702+1410.96L676.702+1410.96L680.702+1415.96L680.702+1420.96L680.702+1423.96L643.702+1426.96Z" opacity="1" fill="#978066"/>
<path d="M505.702+1238.96L478.702+1220.96L465.702+1190.96L469.702+1187.96L519.702+1183.96L537.702+1202.96L536.702+1206.96L505.702+1238.96Z" opacity="1" fill="#1a0d04"/>
<path d="M580.702+603.96L588.702+585.96L608.702+593.96L606.702+606.96L598.702+608.96L580.702+603.96Z" opacity="1" fill="#341c0c"/>
<path d="M631.702+635.96L639.702+624.96L660.702+620.96L681.702+621.96L671.702+640.96L631.702+635.96Z" opacity="1" fill="#4f341d"/>
<path d="M534.702+760.96L530.702+753.96L530.702+743.96L532.702+739.96L584.702+734.96L590.702+745.96L534.702+760.96Z" opacity="1" fill="#2e1208"/>
<path d="M551.702+863.96L535.702+851.96L532.702+837.96L533.702+834.96L578.702+852.96L580.702+855.96L551.702+863.96Z" opacity="1" fill="#250e07"/>
<path d="M656.702+733.96L663.702+719.96L699.702+729.96L683.702+737.96L656.702+733.96Z" opacity="1" fill="#371808"/>
<path d="M538.679+773.934L533.679+761.934L589.679+746.934L593.679+749.934L590.679+768.934L538.679+773.934Z" opacity="1" fill="#52341f"/>
<path d="M742.679+1288.93L752.679+1284.93L758.679+1299.93L748.679+1307.93L742.679+1288.93Z" opacity="1" fill="#5d4532"/>
<path d="M587.679+618.934L597.679+609.934L605.679+607.934L623.679+641.934L618.679+656.934L615.679+658.934L606.679+664.934L587.679+618.934Z" opacity="1" fill="#967c62"/>
<path d="M631.679+711.934L596.679+685.934L642.679+696.934L640.679+711.934L631.679+711.934Z" opacity="1" fill="#6c523d"/>
<path d="M741.679+1251.93L721.679+1239.93L723.679+1229.93L732.679+1228.93L766.679+1237.93L741.679+1251.93Z" opacity="1" fill="#d6c5ae"/>
<path d="M569.679+607.934L572.679+571.934L587.679+586.934L579.679+604.934L569.679+607.934Z" opacity="1" fill="#54331b"/>
<path d="M539.679+792.934L539.679+790.934L539.679+784.934L605.679+784.934L614.679+792.934L539.679+792.934Z" opacity="1" fill="#af9881"/>
<path d="M645.679+1411.93L645.679+1409.93L650.679+1392.93L675.679+1398.93L675.679+1411.93L645.679+1411.93Z" opacity="1" fill="#271306"/>
<path d="M655.679+734.934L651.679+735.934L649.679+732.934L644.679+712.934L660.679+705.934L662.679+720.934L655.679+734.934Z" opacity="1" fill="#311508"/>
<path d="M605.679+1419.93L636.679+1406.93L645.679+1409.93L645.679+1411.93L642.679+1427.93L641.679+1429.93L605.679+1419.93Z" opacity="1" fill="#978163"/>
<path d="M682.679+1330.93L679.679+1324.93L691.679+1310.93L698.679+1312.93L695.679+1320.93L682.679+1330.93Z" opacity="1" fill="#967753"/>
<path d="M645.679+1368.93L637.679+1356.93L675.679+1344.93L684.679+1345.93L688.679+1355.93L645.679+1368.93Z" opacity="1" fill="#8b7459"/>
<path d="M690.679+860.934L689.679+849.934L701.679+847.934L711.679+864.934L702.679+877.934L690.679+860.934Z" opacity="1" fill="#e7d3b9"/>
<path d="M657.679+683.934L655.679+673.934L671.679+671.934L670.679+679.934L669.679+684.934L657.679+683.934Z" opacity="1" fill="#4a280c"/>
<path d="M756.679+1201.93L758.679+1173.93L773.679+1157.93L777.679+1160.93L768.679+1203.93L756.679+1201.93Z" opacity="1" fill="#9f8a74"/>
<path d="M644.679+712.934L640.679+711.934L642.679+696.934L646.679+689.934L652.679+691.934L661.679+704.934L660.679+705.934L644.679+712.934Z" opacity="1" fill="#bea386"/>
<path d="M434.309+446.701L431.309+442.701L438.309+409.701L443.309+407.701L453.309+422.701L434.309+446.701Z" opacity="1" fill="#bcb1a3"/>
<path d="M658.309+622.701L658.309+608.701L668.309+602.701L684.309+620.701L679.309+623.701L658.309+622.701Z" opacity="1" fill="#d5c8bd"/>
<path d="M578.309+857.701L576.309+854.701L579.309+837.701L582.309+836.701L587.309+855.701L581.309+859.701L578.309+857.701Z" opacity="1" fill="#3c1c0f"/>
<path d="M660.309+705.701L651.309+692.701L656.309+684.701L668.309+685.701L674.309+702.701L660.309+705.701Z" opacity="1" fill="#cfb498"/>
<path d="M626.309+728.701L630.309+712.701L639.309+712.701L643.309+713.701L648.309+733.701L626.309+728.701Z" opacity="1" fill="#290f05"/>
<path d="M337.943+1304.13L332.943+1301.13L348.943+1220.13L372.943+1260.13L337.943+1304.13Z" opacity="1" fill="#55493b"/>
<path d="M234.943+1519.13L228.943+1503.13L222.943+1478.13L313.943+1451.13L343.943+1505.13L234.943+1519.13Z" opacity="1" fill="#311f09"/>
<path d="M359.943+1488.13L365.943+1464.13L393.943+1486.13L359.943+1488.13Z" opacity="1" fill="#2d1909"/>
<path d="M636.943+515.134L620.943+453.134L640.943+454.134L640.943+517.134L636.943+515.134Z" opacity="1" fill="#a3998e"/>
</g>
</svg>
