<?xml version="1.0" encoding="UTF-8" standalone="no"?> <!-- Created with Vectornator for iOS (http://vectornator.io/) --><!DOCTYPE svg PUBLIC "-//W3C//DTD SVG 1.1//EN" "http://www.w3.org/Graphics/SVG/1.1/DTD/svg11.dtd">
<svg height="100%" style="fill-rule:nonzero;clip-rule:evenodd;stroke-linecap:round;stroke-linejoin:round;" xmlns:xlink="http://www.w3.org/1999/xlink" xmlns="http://www.w3.org/2000/svg" xml:space="preserve" width="100%" xmlns:vectornator="http://vectornator.io" version="1.1" viewBox="0 0 1205 1605">
<metadata>
<vectornator:setting key="PencilOnly" value="0"/>
<vectornator:setting key="SnapToGuides" value="1"/>
<vectornator:setting key="GuidesVisible" value="1"/>
<vectornator:setting key="RulersVisible" value="1"/>
<vectornator:setting key="TimeLapseWatermarkDisabled" value="0"/>
<vectornator:setting key="DynamicGuides" value="0"/>
<vectornator:setting key="IsolateActiveLayer" value="0"/>
<vectornator:setting key="OutlineMode" value="0"/>
<vectornator:setting key="SnapToEdges" value="0"/>
<vectornator:setting key="DisplayWhiteBackground" value="0"/>
<vectornator:setting key="doHistoryDisabled" value="0"/>
<vectornator:setting key="SnapToPoints" value="0"/>
<vectornator:setting key="DimensionsVisible" value="1"/>
<vectornator:setting key="CMYKEnabledKey" value="0"/>
<vectornator:setting key="Units" value="Points"/>
<vectornator:setting key="SnapToGrid" value="0"/>
</metadata>
<defs/>
<g id="Untitled" vectornator:layerName="Untitled">
<path d="M174+497L168+485L175+425L219+433L241+473L244+486L174+497Z" opacity="1" fill="#98a9bf"/>
<path d="M272+54L268+52L268+0L433+0L409+18L272+54Z" opacity="1" fill="#b4b8ba"/>
<path d="M756+943L751+933L748+917L748+915L844+880L847+927L837+960L786+964L756+943Z" opacity="1" fill="#bbb5b2"/>
<path d="M1001+1333L1004+1233L1047+1299L1049+1306L1001+1333Z" opacity="1" fill="#777674"/>
<path d="M0+252L0+155L80+155L96+166L104+186L98+213L70+248L0+252Z" opacity="1" fill="#9da3ae"/>
<path d="M749+863L741+858L741+857L728+827L734+810L738+806L851+831L852+845L848+852L749+863Z" opacity="1" fill="#d0c6c2"/>
<path d="M584+1557L567+1518L576+1507L633+1499L632+1557L584+1557Z" opacity="1" fill="#523410"/>
<path d="M353+253L380+204L408+197L444+236L441+262L417+300L353+253Z" opacity="1" fill="#cfcecf"/>
<path d="M274+509L310+422L323+413L366+435L367+439L334+488L274+509Z" opacity="1" fill="#faf8f8"/>
<path d="M642+368L636+350L711+362L727+376L718+382L660+386L642+368Z" opacity="1" fill="#b1b1b1"/>
<path d="M28+915L28+914L33+900L42+893L110+866L120+882L126+943L119+956L28+915Z" opacity="1" fill="#8e8f94"/>
<path d="M630+1600L630+1574L637+1563L656+1573L672+1600L630+1600Z" opacity="1" fill="#593a19"/>
<path d="M271+679L302+641L327+664L327+746L271+679Z" opacity="1" fill="#f7efe8"/>
<path d="M756+1202L757+1201L769+1203L787+1222L786+1223L764+1222L756+1202Z" opacity="1" fill="#8f8b86"/>
<path d="M1012+1356L997+1344L1001+1333L1049+1306L1073+1326L1012+1356Z" opacity="1" fill="#575658"/>
<path d="M865+480L851+389L870+361L942+368L961+377L955+472L912+489L865+480Z" opacity="1" fill="#afb3b6"/>
<path d="M919+1266L874+1252L855+1195L856+1183L866+1164L957+1127L1023+1202L1004+1231L919+1266Z" opacity="1" fill="#797b7e"/>
<path d="M277+1045L300+1005L322+1001L342+1011L345+1048L277+1045Z" opacity="1" fill="#727277"/>
<path d="M715+625L702+613L709+589L728+585L771+615L765+628L715+625Z" opacity="1" fill="#e5dfde"/>
<path d="M962+1098L962+1091L979+1042L1120+1100L1120+1106L962+1098Z" opacity="1" fill="#878d95"/>
<path d="M1154+92L1103+0L1200+0L1200+108L1169+104L1154+92Z" opacity="1" fill="#f3f9fb"/>
<path d="M0+914L0+880L33+900L28+914L0+914Z" opacity="1" fill="#989698"/>
<path d="M641+453L621+452L615+450L640+398L645+389L660+386L718+382L659+454L641+453Z" opacity="1" fill="#ababac"/>
<path d="M1006+485L955+472L961+377L981+355L1063+402L1006+485Z" opacity="1" fill="#b5b6b9"/>
<path d="M72+556L69+554L86+494L156+481L168+485L174+497L156+536L72+556Z" opacity="1" fill="#fdfcfc"/>
<path d="M818+734L812+726L809+718L866+637L924+627L971+659L952+698L818+734Z" opacity="1" fill="#e8e0dc"/>
<path d="M664+72L629+0L744+0L745+96L718+102L664+72Z" opacity="1" fill="#c4c7c8"/>
<path d="M866+1164L838+1100L846+1050L962+1091L962+1098L957+1127L866+1164Z" opacity="1" fill="#80848a"/>
<path d="M93+428L93+425L126+383L128+383L175+425L168+485L156+481L93+428Z" opacity="1" fill="#91a4bb"/>
<path d="M390+367L392+358L397+350L424+334L457+372L445+406L440+408L433+410L390+367Z" opacity="1" fill="#a6adb9"/>
<path d="M132+380L171+325L247+348L246+368L132+380Z" opacity="1" fill="#adb3bd"/>
<path d="M254+979L233+975L225+955L240+921L292+920L310+928L314+952L254+979Z" opacity="1" fill="#81858d"/>
<path d="M331+755L327+746L327+664L372+687L374+700L373+703L347+756L342+766L331+755Z" opacity="1" fill="#e6dbd5"/>
<path d="M535+1575L510+1564L503+1556L525+1519L567+1518L584+1557L570+1584L535+1575Z" opacity="1" fill="#7f5c2c"/>
<path d="M997+316L999+291L1034+250L1124+370L1122+376L1100+381L997+316Z" opacity="1" fill="#d4d5d5"/>
<path d="M831+1392L830+1388L837+1322L918+1377L908+1395L831+1392Z" opacity="1" fill="#7a6d5c"/>
<path d="M0+463L0+434L27+411L27+451L0+463Z" opacity="1" fill="#abb7c9"/>
<path d="M870+361L868+329L913+314L942+368L870+361Z" opacity="1" fill="#d8d5d4"/>
<path d="M461+314L469+278L494+291L489+311L461+314Z" opacity="1" fill="#909daa"/>
<path d="M206+104L173+55L203+28L268+52L272+54L261+117L206+104Z" opacity="1" fill="#8194a6"/>
<path d="M979+1042L980+1021L981+1014L1121+1024L1129+1048L1120+1100L979+1042Z" opacity="1" fill="#979a9f"/>
<path d="M254+979L314+952L315+953L322+1001L300+1005L254+979Z" opacity="1" fill="#717175"/>
<path d="M687+1543L676+1522L672+1506L688+1510L767+1542L772+1551L687+1543Z" opacity="1" fill="#7f6444"/>
<path d="M123+1600L147+1540L229+1502L235+1518L243+1600L123+1600Z" opacity="1" fill="#72591f"/>
<path d="M130+651L123+623L207+601L211+698L130+651Z" opacity="1" fill="#e5dedd"/>
<path d="M183+181L269+137L290+152L268+255L183+181Z" opacity="1" fill="#a6aaaf"/>
<path d="M1047+1299L1004+1233L1004+1231L1023+1202L1071+1195L1119+1256L1047+1299Z" opacity="1" fill="#77797a"/>
<path d="M469+278L467+271L498+259L503+272L494+291L469+278Z" opacity="1" fill="#8a9bad"/>
<path d="M940+93L919+0L1098+0L940+93Z" opacity="1" fill="#e0e6e8"/>
<path d="M467+1558L461+1512L465+1506L488+1505L524+1517L525+1519L503+1556L467+1558Z" opacity="1" fill="#7a5821"/>
<path d="M175+425L128+383L132+380L246+368L247+370L243+394L219+433L175+425Z" opacity="1" fill="#94a4ba"/>
<path d="M1143+1336L1131+1317L1134+1291L1200+1291L1200+1336L1143+1336Z" opacity="1" fill="#4e4e51"/>
<path d="M667+304L673+269L742+262L776+297L756+350L727+376L711+362L667+304Z" opacity="1" fill="#bbbabb"/>
<path d="M688+1510L741+1492L748+1498L767+1542L688+1510Z" opacity="1" fill="#a48e65"/>
<path d="M535+1600L535+1575L570+1584L574+1600L535+1600Z" opacity="1" fill="#4e3413"/>
<path d="M206+729L213+701L271+679L327+746L331+755L206+729Z" opacity="1" fill="#ede4de"/>
<path d="M746+1028L756+1015L766+1012L799+1038L777+1052L746+1028Z" opacity="1" fill="#939290"/>
<path d="M0+155L0+0L3+0L8+8L80+155L0+155Z" opacity="1" fill="#7288a0"/>
<path d="M745+96L744+0L806+0L767+94L745+96Z" opacity="1" fill="#d0d4d5"/>
<path d="M203+28L203+0L268+0L268+52L203+28Z" opacity="1" fill="#9fa9b1"/>
<path d="M735+208L709+168L718+102L745+96L767+94L884+144L883+146L863+208L735+208Z" opacity="1" fill="#d0d3d4"/>
<path d="M288+865L237+854L237+835L239+821L344+787L329+831L311+849L288+865Z" opacity="1" fill="#a4a2a5"/>
<path d="M461+314L426+326L417+300L441+262L467+271L469+278L461+314Z" opacity="1" fill="#aeb3bc"/>
<path d="M399+1600L467+1558L503+1556L510+1564L510+1600L399+1600Z" opacity="1" fill="#917043"/>
<path d="M353+512L402+476L407+481L417+524L390+553L376+549L353+512Z" opacity="1" fill="#eae3df"/>
<path d="M1064+1524L1080+1438L1156+1432L1200+1464L1200+1466L1157+1524L1064+1524Z" opacity="1" fill="#5c3c17"/>
<path d="M0+1538L0+1504L65+1504L70+1520L68+1538L0+1538Z" opacity="1" fill="#73674a"/>
<path d="M777+476L727+376L756+350L851+389L865+480L810+500L777+476Z" opacity="1" fill="#abacb0"/>
<path d="M1129+1048L1121+1024L1126+962L1200+978L1200+1037L1129+1048Z" opacity="1" fill="#9ea3ab"/>
<path d="M858+630L807+521L807+510L810+500L865+480L912+489L924+627L866+637L858+630Z" opacity="1" fill="#a2b1c0"/>
<path d="M644+546L644+535L645+519L684+493L688+495L691+516L644+546Z" opacity="1" fill="#cdc6c1"/>
<path d="M145+830L174+784L207+762L207+763L239+821L237+835L145+830Z" opacity="1" fill="#b6b3b3"/>
<path d="M504+222L471+119L474+110L556+137L548+224L504+222Z" opacity="1" fill="#94a1b1"/>
<path d="M292+920L298+880L311+881L326+913L324+919L310+928L292+920Z" opacity="1" fill="#8a898a"/>
<path d="M213+701L211+698L207+601L220+582L268+564L273+567L304+628L302+641L271+679L213+701Z" opacity="1" fill="#fbf6f1"/>
<path d="M944+1349L919+1266L1004+1231L1004+1233L1001+1333L997+1344L944+1349Z" opacity="1" fill="#767573"/>
<path d="M0+880L0+861L21+856L42+893L33+900L0+880Z" opacity="1" fill="#cfc1b8"/>
<path d="M778+1160L774+1157L769+1151L779+1124L797+1103L838+1100L866+1164L856+1183L778+1160Z" opacity="1" fill="#787a81"/>
<path d="M0+1456L0+1399L42+1399L45+1408L50+1456L0+1456Z" opacity="1" fill="#635e53"/>
<path d="M346+621L304+628L273+567L376+549L390+553L395+575L394+587L369+612L346+621Z" opacity="1" fill="#e5dcda"/>
<path d="M748+915L742+908L740+889L749+863L848+852L844+880L748+915Z" opacity="1" fill="#c1b8b5"/>
<path d="M981+355L997+316L1100+381L1063+402L981+355Z" opacity="1" fill="#c2c1c2"/>
<path d="M327+664L302+641L304+628L346+621L378+675L378+679L372+687L327+664Z" opacity="1" fill="#e8dedb"/>
<path d="M1080+1438L1046+1416L1099+1330L1131+1317L1143+1336L1148+1363L1156+1432L1080+1438Z" opacity="1" fill="#6f4e24"/>
<path d="M86+494L93+428L156+481L86+494Z" opacity="1" fill="#e6e5e8"/>
<path d="M126+943L120+882L229+870L240+921L225+955L126+943Z" opacity="1" fill="#888b93"/>
<path d="M0+1009L0+914L28+914L28+915L18+1009L0+1009Z" opacity="1" fill="#737780"/>
<path d="M73+735L71+733L45+697L94+598L123+623L130+651L89+726L73+735Z" opacity="1" fill="#f0e9e4"/>
<path d="M711+673L715+625L765+628L769+694L730+698L711+673Z" opacity="1" fill="#f8f2ec"/>
<path d="M310+293L302+278L353+253L417+300L426+326L424+334L397+350L310+293Z" opacity="1" fill="#cbc9cb"/>
<path d="M0+359L0+252L70+248L72+317L0+359Z" opacity="1" fill="#899bb0"/>
<path d="M243+1600L235+1518L344+1504L346+1505L381+1573L383+1600L243+1600Z" opacity="1" fill="#785a24"/>
<path d="M0+732L0+673L45+697L71+733L0+732Z" opacity="1" fill="#ebe3de"/>
<path d="M847+927L844+880L848+852L852+845L996+881L979+956L847+927Z" opacity="1" fill="#c4bdbc"/>
<path d="M156+536L174+497L244+486L269+513L268+564L220+582L156+536Z" opacity="1" fill="#f7f4f3"/>
<path d="M406+424L433+410L440+408L433+441L406+424Z" opacity="1" fill="#ebedf3"/>
<path d="M741+1492L729+1483L738+1444L744+1438L759+1444L768+1456L748+1498L741+1492Z" opacity="1" fill="#7b5d2c"/>
<path d="M769+1203L778+1160L856+1183L855+1195L787+1222L769+1203Z" opacity="1" fill="#727479"/>
<path d="M153+1361L129+1360L120+1350L175+1287L240+1282L236+1331L153+1361Z" opacity="1" fill="#565755"/>
<path d="M247+370L246+368L247+348L278+273L302+278L310+293L324+362L314+390L247+370Z" opacity="1" fill="#babbc1"/>
<path d="M925+1461L905+1431L908+1395L918+1377L929+1370L992+1427L925+1461Z" opacity="1" fill="#795a2c"/>
<path d="M967+1600L940+1600L925+1461L992+1427L1015+1431L967+1600Z" opacity="1" fill="#674515"/>
<path d="M609+1600L630+1574L630+1600L609+1600Z" opacity="1" fill="#a7947a"/>
<path d="M224+1085L211+1057L233+975L254+979L300+1005L277+1045L224+1085Z" opacity="1" fill="#7c7d80"/>
<path d="M756+350L776+297L829+273L868+329L870+361L851+389L756+350Z" opacity="1" fill="#b7b8b8"/>
<path d="M147+1540L137+1507L217+1470L218+1470L223+1477L229+1502L147+1540Z" opacity="1" fill="#503d13"/>
<path d="M728+585L749+543L807+510L807+521L773+612L771+615L728+585Z" opacity="1" fill="#a7b4c3"/>
<path d="M346+1505L360+1487L394+1485L404+1486L406+1515L381+1573L346+1505Z" opacity="1" fill="#735521"/>
<path d="M83+1242L158+1163L189+1159L247+1255L247+1271L240+1282L175+1287L83+1242Z" opacity="1" fill="#656562"/>
<path d="M971+659L924+627L912+489L955+472L1006+485L1073+545L1043+625L1004+655L971+659Z" opacity="1" fill="#a2b1c0"/>
<path d="M240+921L229+870L237+854L288+865L298+880L292+920L240+921Z" opacity="1" fill="#8d9198"/>
<path d="M69+764L68+761L73+735L89+726L206+729L207+762L174+784L69+764Z" opacity="1" fill="#c1bebd"/>
<path d="M1129+1266L1119+1256L1071+1195L1118+1130L1200+1192L1200+1224L1129+1266Z" opacity="1" fill="#777c82"/>
<path d="M773+612L807+521L858+630L773+612Z" opacity="1" fill="#a5b4c3"/>
<path d="M673+269L652+239L647+224L709+168L735+208L742+262L673+269Z" opacity="1" fill="#cdcecf"/>
<path d="M0+761L0+732L71+733L73+735L68+761L0+761Z" opacity="1" fill="#cbc5c4"/>
<path d="M239+821L207+763L343+772L346+782L346+786L344+787L239+821Z" opacity="1" fill="#c4bdbc"/>
<path d="M938+120L934+118L940+93L1098+0L1103+0L1154+92L1081+114L938+120Z" opacity="1" fill="#e7ecee"/>
<path d="M1109+737L1136+685L1200+677L1200+767L1109+737Z" opacity="1" fill="#a9b6c5"/>
<path d="M658+568L653+567L652+567L644+550L644+546L691+516L697+541L686+562L658+568Z" opacity="1" fill="#f2ebe6"/>
<path d="M0+434L0+359L36+403L27+411L0+434Z" opacity="1" fill="#8ca1b9"/>
<path d="M1049+1306L1047+1299L1119+1256L1129+1266L1134+1291L1131+1317L1099+1330L1073+1326L1049+1306Z" opacity="1" fill="#595b5e"/>
<path d="M399+1600L383+1600L381+1573L406+1515L440+1503L461+1512L467+1558L399+1600Z" opacity="1" fill="#7b5b26"/>
<path d="M833+1455L818+1437L818+1428L831+1392L908+1395L905+1431L833+1455Z" opacity="1" fill="#7e5e29"/>
<path d="M223+1477L218+1470L222+1441L250+1370L306+1379L334+1428L314+1450L223+1477Z" opacity="1" fill="#5e5a4e"/>
<path d="M983+981L979+956L996+881L1024+859L1126+913L1124+955L983+981Z" opacity="1" fill="#c0bab9"/>
<path d="M794+1270L778+1259L782+1233L786+1223L787+1222L855+1195L874+1252L839+1294L794+1270Z" opacity="1" fill="#707274"/>
<path d="M135+1434L127+1400L129+1360L153+1361L222+1441L218+1470L217+1470L135+1434Z" opacity="1" fill="#605c4f"/>
<path d="M465+1506L471+1471L473+1460L486+1494L488+1505L465+1506Z" opacity="1" fill="#4f3516"/>
<path d="M672+1600L656+1573L687+1543L772+1551L821+1600L672+1600Z" opacity="1" fill="#5d3e17"/>
<path d="M18+1009L28+915L119+956L96+1006L65+1025L18+1009Z" opacity="1" fill="#757880"/>
<path d="M1073+545L1006+485L1063+402L1100+381L1122+376L1153+419L1117+533L1073+545Z" opacity="1" fill="#b5b7bb"/>
<path d="M510+1600L510+1564L535+1575L535+1600L510+1600Z" opacity="1" fill="#816032"/>
<path d="M766+1012L773+976L786+964L837+960L842+978L839+1030L799+1038L766+1012Z" opacity="1" fill="#9c9d9f"/>
<path d="M274+509L269+513L244+486L241+473L279+427L310+422L274+509Z" opacity="1" fill="#eeebec"/>
<path d="M444+236L408+197L471+119L504+222L499+228L444+236Z" opacity="1" fill="#8f9eb0"/>
<path d="M324+362L310+293L397+350L392+358L324+362Z" opacity="1" fill="#c6c5c7"/>
<path d="M0+555L0+463L27+451L91+425L93+425L93+428L86+494L69+554L0+555Z" opacity="1" fill="#faf9f9"/>
<path d="M842+978L837+960L847+927L979+956L983+981L980+1004L842+978Z" opacity="1" fill="#b3b2b2"/>
<path d="M110+865L67+801L69+764L174+784L145+830L110+865Z" opacity="1" fill="#b1aeaf"/>
<path d="M574+1600L570+1584L584+1557L632+1557L634+1559L637+1563L630+1574L609+1600L574+1600Z" opacity="1" fill="#694e2d"/>
<path d="M247+1271L247+1255L342+1191L349+1219L333+1300L247+1271Z" opacity="1" fill="#636362"/>
<path d="M250+1370L236+1331L240+1282L247+1271L333+1300L338+1303L350+1319L345+1344L306+1379L250+1370Z" opacity="1" fill="#66635c"/>
<path d="M77+1600L68+1538L70+1520L137+1507L147+1540L123+1600L77+1600Z" opacity="1" fill="#6f5a20"/>
<path d="M346+621L369+612L386+652L378+675L346+621Z" opacity="1" fill="#d9cfca"/>
<path d="M166+57L102+0L203+0L203+28L173+55L166+57Z" opacity="1" fill="#a6aeb5"/>
<path d="M171+325L180+284L271+267L278+273L247+348L171+325Z" opacity="1" fill="#9ca6b6"/>
<path d="M769+694L765+628L771+615L773+612L858+630L866+637L809+718L769+694Z" opacity="1" fill="#f2ebe6"/>
<path d="M71+1092L65+1025L96+1006L211+1057L224+1085L227+1105L189+1159L158+1163L71+1092Z" opacity="1" fill="#707173"/>
<path d="M1118+1130L1122+1113L1200+1113L1200+1192L1118+1130Z" opacity="1" fill="#81878e"/>
<path d="M1126+962L1124+955L1126+913L1200+857L1200+978L1126+962Z" opacity="1" fill="#b9b6b8"/>
<path d="M353+512L334+488L367+439L402+476L353+512Z" opacity="1" fill="#fbf7f6"/>
<path d="M1081+773L1061+777L1004+655L1043+625L1136+685L1109+737L1081+773Z" opacity="1" fill="#a7b5c4"/>
<path d="M241+473L219+433L243+394L279+427L241+473Z" opacity="1" fill="#96a6be"/>
<path d="M169+179L104+186L96+166L145+80L166+57L173+55L206+104L169+179Z" opacity="1" fill="#7c8fa4"/>
<path d="M852+845L851+831L853+816L942+761L1027+824L1024+859L996+881L852+845Z" opacity="1" fill="#d4c9c5"/>
<path d="M742+262L735+208L863+208L862+219L829+273L776+297L742+262Z" opacity="1" fill="#c4c4c5"/>
<path d="M837+1322L833+1312L839+1294L874+1252L919+1266L944+1349L929+1370L918+1377L837+1322Z" opacity="1" fill="#787571"/>
<path d="M589+317L571+306L567+292L571+240L617+215L647+224L652+239L589+317Z" opacity="1" fill="#dad8d6"/>
<path d="M0+1600L0+1538L68+1538L77+1600L0+1600Z" opacity="1" fill="#78612e"/>
<path d="M408+197L380+204L331+147L409+18L433+0L435+0L474+110L471+119L408+197Z" opacity="1" fill="#b0b4b5"/>
<path d="M1024+859L1027+824L1061+777L1081+773L1200+830L1200+857L1126+913L1024+859Z" opacity="1" fill="#c6bfbf"/>
<path d="M846+1050L841+1033L980+1021L979+1042L962+1091L846+1050Z" opacity="1" fill="#8d9299"/>
<path d="M688+1510L672+1506L669+1501L683+1486L720+1479L729+1483L741+1492L688+1510Z" opacity="1" fill="#695019"/>
<path d="M123+623L94+598L72+556L156+536L220+582L207+601L123+623Z" opacity="1" fill="#f9f5f3"/>
<path d="M785+1094L780+1070L777+1052L799+1038L839+1030L841+1033L846+1050L838+1100L797+1103L785+1094Z" opacity="1" fill="#8d8d8e"/>
<path d="M1134+1600L1153+1566L1200+1584L1200+1600L1134+1600Z" opacity="1" fill="#4a300f"/>
<path d="M634+1559L632+1557L633+1499L669+1501L672+1506L676+1522L634+1559Z" opacity="1" fill="#7a5b2e"/>
<path d="M832+1600L833+1455L905+1431L925+1461L940+1600L832+1600Z" opacity="1" fill="#6c4f1c"/>
<path d="M311+881L298+880L288+865L311+849L319+878L311+881Z" opacity="1" fill="#969598"/>
<path d="M571+240L548+224L556+137L593+134L617+215L571+240Z" opacity="1" fill="#b3b6bc"/>
<path d="M27+451L27+411L36+403L91+425L27+451Z" opacity="1" fill="#e7e6e9"/>
<path d="M1148+1363L1143+1336L1200+1336L1200+1363L1148+1363Z" opacity="1" fill="#785c33"/>
<path d="M1034+250L1039+237L1098+224L1181+287L1130+362L1124+370L1034+250Z" opacity="1" fill="#e0e2e2"/>
<path d="M120+1350L60+1320L31+1266L83+1242L175+1287L120+1350Z" opacity="1" fill="#63615b"/>
<path d="M96+166L80+155L8+8L145+80L96+166Z" opacity="1" fill="#778ca2"/>
<path d="M1130+362L1181+287L1200+283L1200+362L1130+362Z" opacity="1" fill="#dbdbdc"/>
<path d="M302+278L278+273L271+267L268+255L290+152L331+147L380+204L353+253L302+278Z" opacity="1" fill="#b0b3b6"/>
<path d="M1153+1566L1157+1524L1200+1466L1200+1584L1153+1566Z" opacity="1" fill="#6a4c27"/>
<path d="M767+94L806+0L919+0L940+93L934+118L884+144L767+94Z" opacity="1" fill="#dfe3e4"/>
<path d="M1153+419L1122+376L1124+370L1130+362L1200+362L1200+421L1153+419Z" opacity="1" fill="#bebec0"/>
<path d="M21+856L58+805L67+801L110+865L110+866L42+893L21+856Z" opacity="1" fill="#b4adab"/>
<path d="M1032+228L938+120L1081+114L1032+228Z" opacity="1" fill="#dbdddf"/>
<path d="M45+1408L42+1399L60+1320L120+1350L129+1360L127+1400L45+1408Z" opacity="1" fill="#666156"/>
<path d="M841+1033L839+1030L842+978L980+1004L981+1014L980+1021L841+1033Z" opacity="1" fill="#9e9fa2"/>
<path d="M488+1505L486+1494L519+1494L524+1517L488+1505Z" opacity="1" fill="#684714"/>
<path d="M70+1520L65+1504L63+1472L135+1434L217+1470L137+1507L70+1520Z" opacity="1" fill="#514d3f"/>
<path d="M981+1014L980+1004L983+981L1124+955L1126+962L1121+1024L981+1014Z" opacity="1" fill="#a6a9ad"/>
<path d="M132+380L128+383L126+383L72+317L70+248L98+213L180+284L171+325L132+380Z" opacity="1" fill="#99a3b4"/>
<path d="M708+734L707+728L716+710L729+699L730+698L769+694L809+718L812+726L744+775L739+772L708+734Z" opacity="1" fill="#e0d7d2"/>
<path d="M771+1288L794+1270L839+1294L833+1312L801+1322L771+1288Z" opacity="1" fill="#706f6d"/>
<path d="M1046+1416L1042+1415L1012+1356L1073+1326L1099+1330L1046+1416Z" opacity="1" fill="#78582e"/>
<path d="M1117+533L1153+419L1200+421L1200+567L1117+533Z" opacity="1" fill="#bababe"/>
<path d="M1023+1202L957+1127L962+1098L1120+1106L1122+1113L1118+1130L1071+1195L1023+1202Z" opacity="1" fill="#7a8089"/>
<path d="M1156+1432L1148+1363L1200+1363L1200+1464L1156+1432Z" opacity="1" fill="#66491a"/>
<path d="M853+816L818+734L952+698L942+761L853+816Z" opacity="1" fill="#d1cbca"/>
<path d="M290+152L269+137L261+117L272+54L409+18L331+147L290+152Z" opacity="1" fill="#afb3b5"/>
<path d="M1134+1291L1129+1266L1200+1224L1200+1291L1134+1291Z" opacity="1" fill="#5b5d62"/>
<path d="M467+271L441+262L444+236L499+228L498+259L467+271Z" opacity="1" fill="#8b9cb1"/>
<path d="M1098+224L1169+104L1200+108L1200+283L1181+287L1098+224Z" opacity="1" fill="#f9fbfc"/>
<path d="M36+403L0+359L72+317L126+383L93+425L91+425L36+403Z" opacity="1" fill="#8c9fb6"/>
<path d="M409+480L407+481L402+476L367+439L366+435L406+424L433+441L436+445L437+452L409+480Z" opacity="1" fill="#fbfaf9"/>
<path d="M709+589L686+562L697+541L749+543L728+585L709+589Z" opacity="1" fill="#dad7d9"/>
<path d="M247+1255L189+1159L227+1105L326+1124L348+1182L342+1191L247+1255Z" opacity="1" fill="#686969"/>
<path d="M227+1105L224+1085L277+1045L345+1048L352+1064L336+1112L326+1124L227+1105Z" opacity="1" fill="#727273"/>
<path d="M89+726L130+651L211+698L213+701L206+729L89+726Z" opacity="1" fill="#d6d1d0"/>
<path d="M8+8L3+0L102+0L166+57L145+80L8+8Z" opacity="1" fill="#8b99a8"/>
<path d="M0+1399L0+1256L31+1266L60+1320L42+1399L0+1399Z" opacity="1" fill="#565755"/>
<path d="M183+181L169+179L206+104L261+117L269+137L183+181Z" opacity="1" fill="#8c99aa"/>
<path d="M1122+1113L1120+1106L1120+1100L1129+1048L1200+1037L1200+1113L1122+1113Z" opacity="1" fill="#92969b"/>
<path d="M556+137L474+110L435+0L629+0L664+72L593+134L556+137Z" opacity="1" fill="#b5b9ba"/>
<path d="M586+398L583+390L595+366L600+368L645+389L640+398L586+398Z" opacity="1" fill="#b6b2b1"/>
<path d="M180+284L98+213L104+186L169+179L183+181L268+255L271+267L180+284Z" opacity="1" fill="#a6aab0"/>
<path d="M688+495L684+493L659+454L718+382L727+376L777+476L688+495Z" opacity="1" fill="#adadb0"/>
<path d="M207+763L207+762L206+729L331+755L342+766L343+772L207+763Z" opacity="1" fill="#d8d0cc"/>
<path d="M931+282L862+219L863+208L883+146L977+287L931+282Z" opacity="1" fill="#c9cbcc"/>
<path d="M641+516L641+453L659+454L684+493L645+519L641+516Z" opacity="1" fill="#b8b5b6"/>
<path d="M913+314L931+282L977+287L999+291L997+316L981+355L961+377L942+368L913+314Z" opacity="1" fill="#c3c3c4"/>
<path d="M337+1428L334+1428L306+1379L345+1344L381+1387L337+1428Z" opacity="1" fill="#5c5951"/>
<path d="M96+1006L119+956L126+943L225+955L233+975L211+1057L96+1006Z" opacity="1" fill="#787c83"/>
<path d="M796+1377L796+1325L801+1322L833+1312L837+1322L830+1388L796+1377Z" opacity="1" fill="#757067"/>
<path d="M1039+237L1032+228L1081+114L1154+92L1169+104L1098+224L1039+237Z" opacity="1" fill="#eaedef"/>
<path d="M986+1600L1064+1524L1157+1524L1153+1566L1134+1600L986+1600Z" opacity="1" fill="#593b14"/>
<path d="M273+567L268+564L269+513L274+509L334+488L353+512L376+549L273+567Z" opacity="1" fill="#f8f3f1"/>
<path d="M31+1266L0+1256L0+1162L71+1092L158+1163L83+1242L31+1266Z" opacity="1" fill="#696966"/>
<path d="M738+806L738+796L744+775L812+726L818+734L853+816L851+831L738+806Z" opacity="1" fill="#d3cbc8"/>
<path d="M45+697L0+673L0+555L69+554L72+556L94+598L45+697Z" opacity="1" fill="#f8f4f1"/>
<path d="M986+1600L967+1600L1015+1431L1042+1415L1046+1416L1080+1438L1064+1524L986+1600Z" opacity="1" fill="#674819"/>
<path d="M0+861L0+816L58+805L21+856L0+861Z" opacity="1" fill="#a6a4a6"/>
<path d="M1043+625L1073+545L1117+533L1200+567L1200+677L1136+685L1043+625Z" opacity="1" fill="#a2b2c2"/>
<path d="M868+329L829+273L862+219L931+282L913+314L868+329Z" opacity="1" fill="#c2c2c3"/>
<path d="M772+1551L767+1542L748+1498L768+1456L815+1438L818+1437L833+1455L832+1600L821+1600L772+1551Z" opacity="1" fill="#6a4b1f"/>
<path d="M697+541L691+516L688+495L777+476L810+500L807+510L749+543L697+541Z" opacity="1" fill="#d1cfd2"/>
<path d="M656+1573L637+1563L634+1559L676+1522L687+1543L656+1573Z" opacity="1" fill="#5e3a17"/>
<path d="M636+350L597+335L594+323L667+304L711+362L636+350Z" opacity="1" fill="#c3c0bd"/>
<path d="M600+368L642+368L660+386L645+389L600+368Z" opacity="1" fill="#b7b5b5"/>
<path d="M942+761L952+698L971+659L1004+655L1061+777L1027+824L942+761Z" opacity="1" fill="#bbbec6"/>
<path d="M0+816L0+761L68+761L69+764L67+801L58+805L0+816Z" opacity="1" fill="#afadaf"/>
<path d="M503+272L498+259L499+228L504+222L548+224L571+240L567+292L503+272Z" opacity="1" fill="#a1a7b0"/>
<path d="M594+323L589+317L652+239L673+269L667+304L594+323Z" opacity="1" fill="#dbd9d8"/>
<path d="M323+413L314+390L324+362L392+358L390+367L366+435L323+413Z" opacity="1" fill="#a7afbe"/>
<path d="M670+601L658+568L686+562L709+589L702+613L687+619L686+619L670+601Z" opacity="1" fill="#efe7e1"/>
<path d="M120+882L110+866L110+865L145+830L237+835L237+854L229+870L120+882Z" opacity="1" fill="#9a9ba0"/>
<path d="M406+424L366+435L390+367L433+410L406+424Z" opacity="1" fill="#9ba9be"/>
<path d="M696+664L687+619L702+613L715+625L711+673L696+664Z" opacity="1" fill="#ece3dc"/>
<path d="M243+394L247+370L314+390L323+413L310+422L279+427L243+394Z" opacity="1" fill="#a0acbd"/>
<path d="M0+1504L0+1456L50+1456L63+1472L65+1504L0+1504Z" opacity="1" fill="#505044"/>
<path d="M929+1370L944+1349L997+1344L1012+1356L1042+1415L1015+1431L992+1427L929+1370Z" opacity="1" fill="#755224"/>
<path d="M153+1361L236+1331L250+1370L222+1441L153+1361Z" opacity="1" fill="#6e6858"/>
<path d="M63+1472L50+1456L45+1408L127+1400L135+1434L63+1472Z" opacity="1" fill="#494c47"/>
<path d="M1081+773L1109+737L1200+767L1200+830L1081+773Z" opacity="1" fill="#c2bfc3"/>
<path d="M883+146L884+144L934+118L938+120L1032+228L1039+237L1034+250L999+291L977+287L883+146Z" opacity="1" fill="#d3d5d7"/>
<path d="M0+1162L0+1009L18+1009L65+1025L71+1092L0+1162Z" opacity="1" fill="#6b6d70"/>
<path d="M617+215L593+134L664+72L718+102L709+168L647+224L617+215Z" opacity="1" fill="#bcbec1"/>
</g>
</svg>
